<?xml version="1.0" encoding="UTF-8"?>
<svg id="Layer_1" xmlns="http://www.w3.org/2000/svg" version="1.1" viewBox="0 0 512 228.83">
  <!-- Generator: Adobe Illustrator 29.5.1, SVG Export Plug-In . SVG Version: 2.1.0 Build 141)  -->
  <defs>
    <style>
      .st0 {
        fill: #005581;
      }
    </style>
  </defs>
  <g>
    <path class="st0" d="M283.63,2.68c-2.81,0-5.75.28-8.56.7h-77.85v31.42h11.08v125.4h41.1v-46.71h25.81c2.81.42,5.61.7,8.42.7s5.75-.28,8.56-.7h.56c26.93-4.49,46.71-27.77,46.71-54.99,0-30.86-24.97-55.83-55.83-55.83h0ZM272.83,32.56h1.96c14.03.98,24.97,12.62,24.97,26.79s-10.94,25.67-24.97,26.79h-.14c-.56,0-1.12.14-1.68.14-.7,0-1.4,0-2.1-.14h-24.13v-53.58h26.09Z"/>
    <polygon class="st0" points="0 2.12 0 34.67 .56 34.67 .56 51.5 28.34 51.5 28.34 34.67 53.72 34.67 53.72 159.51 101.84 159.51 101.84 34.67 129.61 34.67 129.61 51.5 157.53 51.5 157.53 9.7 157.53 2.12 0 2.12"/>
    <polygon class="st0" points="361.77 2.12 361.77 34.25 377.76 34.11 437.65 162.88 491.94 34.39 512 34.25 512 2.12 466.55 2.12 458.84 23.44 458.84 23.44 438.64 79.55 406.51 2.12 406.51 2.26 406.51 2.12 361.77 2.12"/>
  </g>
  <g>
    <path class="st0" d="M10.4,224.88L.84,188.34h10.86l5.21,24.21,5.21-24.21h10.68l-9.66,36.54h-12.73Z"/>
    <path class="st0" d="M40.79,224.88v-36.54h10.1v36.54h-10.1Z"/>
    <path class="st0" d="M70.43,210.6c-3.65-.82-6.33-2.13-8.03-3.94-1.71-1.81-2.56-4.23-2.56-7.27,0-3.79,1.19-6.73,3.56-8.83,2.37-2.1,5.71-3.15,10.01-3.15,4.03,0,7.21.98,9.52,2.94,2.31,1.96,3.62,4.75,3.92,8.37l-9.83,1.02c-.27-1.3-.69-2.2-1.27-2.71-.58-.51-1.46-.77-2.65-.77s-1.98.21-2.56.61-.87.99-.87,1.74c0,.61.22,1.11.67,1.48.44.38,1.19.68,2.22.92l4.27,1.02c3.77.92,6.48,2.26,8.14,4.02,1.66,1.76,2.49,4.19,2.49,7.29,0,4.03-1.21,7.11-3.63,9.24-2.42,2.13-5.91,3.2-10.48,3.2s-7.82-1.09-10.21-3.28c-2.39-2.18-3.72-5.44-3.98-9.77h9.97c.18,1.43.66,2.49,1.45,3.17.79.68,1.92,1.02,3.4,1.02,2.4,0,3.6-.9,3.6-2.71,0-.72-.22-1.28-.65-1.69-.43-.41-1.16-.73-2.2-.97l-4.32-.97Z"/>
    <path class="st0" d="M95.88,224.88v-36.54h10.1v36.54h-10.1Z"/>
    <path class="st0" d="M130.76,225.8c-5.04,0-8.95-1.65-11.72-4.96-2.77-3.31-4.16-8-4.16-14.07,0-3.99.62-7.44,1.87-10.34,1.25-2.9,3.08-5.13,5.5-6.68,2.42-1.55,5.35-2.33,8.79-2.33,5.04,0,8.95,1.66,11.73,4.96,2.77,3.31,4.16,7.98,4.16,14.02s-1.42,10.91-4.25,14.3c-2.83,3.4-6.8,5.09-11.9,5.09ZM130.9,215.82c3.71,0,5.56-3.07,5.56-9.21s-1.85-9.21-5.56-9.21-5.56,3.07-5.56,9.21,1.85,9.21,5.56,9.21Z"/>
    <path class="st0" d="M175.48,224.88l-10.23-18.58v18.58h-9.43v-36.54h8.68l10.15,18.47v-18.47h9.43v36.54h-8.59Z"/>
    <path class="st0" d="M207.65,224.88v-36.54h10.1v36.54h-10.1Z"/>
    <path class="st0" d="M247.21,224.88l-10.23-18.58v18.58h-9.43v-36.54h8.68l10.15,18.47v-18.47h9.43v36.54h-8.59Z"/>
    <path class="st0" d="M285.25,224.88l-10.23-18.58v18.58h-9.43v-36.54h8.68l10.15,18.47v-18.47h9.43v36.54h-8.59Z"/>
    <path class="st0" d="M318.63,225.8c-5.04,0-8.95-1.65-11.72-4.96-2.77-3.31-4.16-8-4.16-14.07,0-3.99.62-7.44,1.87-10.34s3.08-5.13,5.5-6.68c2.42-1.55,5.35-2.33,8.79-2.33,5.04,0,8.95,1.66,11.73,4.96,2.77,3.31,4.16,7.98,4.16,14.02s-1.42,10.91-4.25,14.3c-2.83,3.4-6.8,5.09-11.9,5.09ZM318.76,215.82c3.71,0,5.56-3.07,5.56-9.21s-1.85-9.21-5.56-9.21-5.56,3.07-5.56,9.21,1.85,9.21,5.56,9.21Z"/>
    <path class="st0" d="M349.24,224.88l-9.57-36.54h10.86l5.21,24.21,5.21-24.21h10.68l-9.66,36.54h-12.73Z"/>
    <path class="st0" d="M395.78,224.88l-1.42-5.88h-10.06l-1.38,5.88h-9.97l10.32-36.54h12.46l10.23,36.54h-10.19ZM389.33,197.81l-2.89,12.13h5.79l-2.89-12.13Z"/>
    <path class="st0" d="M416.61,224.88v-26.56h-8.85v-9.98h27.81v9.98h-8.85v26.56h-10.1Z"/>
    <path class="st0" d="M457.68,225.8c-5.04,0-8.95-1.65-11.72-4.96-2.77-3.31-4.16-8-4.16-14.07,0-3.99.62-7.44,1.87-10.34s3.08-5.13,5.5-6.68c2.42-1.55,5.35-2.33,8.79-2.33,5.04,0,8.95,1.66,11.73,4.96,2.77,3.31,4.16,7.98,4.16,14.02s-1.42,10.91-4.25,14.3c-2.83,3.4-6.8,5.09-11.9,5.09ZM457.81,215.82c3.71,0,5.56-3.07,5.56-9.21s-1.85-9.21-5.56-9.21-5.56,3.07-5.56,9.21,1.85,9.21,5.56,9.21Z"/>
    <path class="st0" d="M500.84,224.88l-5.07-11.72h-3.56v11.72h-9.48v-36.54h13.62c4.24,0,7.45,1.01,9.63,3.02,2.18,2.01,3.27,5,3.27,8.96,0,4.71-1.56,8.22-4.67,10.54l6.59,14.02h-10.32ZM495.59,204.71c1.45,0,2.51-.31,3.18-.92.67-.61,1-1.6,1-2.97s-.33-2.35-1-2.97c-.67-.61-1.73-.92-3.18-.92h-3.38v7.78h3.38Z"/>
  </g>
</svg>