<?xml version="1.0" encoding="UTF-8"?>
<svg id="Layer_1" data-name="Layer 1" xmlns="http://www.w3.org/2000/svg" viewBox="0 0 704 336">
  <defs>
    <style>
      .cls-1 {
        fill: #ff0086;
      }

      .cls-2 {
        fill: #ffbc00;
      }
    </style>
  </defs>
  <rect class="cls-2" x="608" y="304" width="32" height="32"/>
  <g>
    <path class="cls-1" d="M320,0H0v96h232v24H16c-6.25,6.25-9.75,9.75-16,16v200h336v-96h-208v-24h192c6.25-6.25,9.75-9.75,16-16V16c-6.25-6.25-9.75-9.75-16-16Z"/>
    <path class="cls-1" d="M688,0h-320v96h232v24h-232v216h128v-120h192c6.25-6.25,9.75-9.75,16-16V16c-6.25-6.25-9.75-9.75-16-16Z"/>
  </g>
</svg>