<?xml version="1.0" encoding="UTF-8"?>
<svg id="Layer_1" data-name="Layer 1" xmlns="http://www.w3.org/2000/svg" viewBox="0 0 1152.92 116.81">
  <defs>
    <style>
      .cls-1 {
        fill: #0060c6;
      }

      .cls-2 {
        fill: #ff0;
      }
    </style>
  </defs>
  <g>
    <path class="cls-1" d="M66.26,91.56V2.25h35.15c14.76,0,25.98,3.71,33.64,11.13,7.67,7.42,11.53,18.26,11.53,32.52s-4.04,25.95-12.08,33.84c-8.06,7.88-19.54,11.82-34.46,11.82h-33.77ZM100.4,71.3c14.18,0,21.26-8.21,21.26-24.64,0-8.17-1.65-14.23-4.95-18.2-3.29-3.96-8.31-5.94-15.06-5.94h-11.38v48.78h10.13Z"/>
    <path class="cls-1" d="M205.34,91.56l-32.14-51.16v51.16h-22.76V2.25h21.01l32.14,51.15V2.25h22.77v89.31h-21.02Z"/>
    <path class="cls-1" d="M312.53,58.91c-.66,10.93-4.5,19.47-11.5,25.65-7,6.17-16.39,9.25-28.14,9.25-13.51,0-23.99-4.06-31.45-12.19-7.47-8.13-11.2-19.53-11.2-34.21s3.82-26.45,11.44-34.84c7.63-8.38,18.24-12.57,31.84-12.57,10.67,0,19.18,2.65,25.51,7.94,6.34,5.3,10.38,13.16,12.13,23.58l-23.89,2.75c-1-4.83-2.65-8.32-4.94-10.44-2.29-2.13-5.49-3.19-9.57-3.19-11.43,0-17.14,8.72-17.14,26.14s5.8,26.39,17.39,26.39c4.34,0,7.76-1.2,10.26-3.62,2.5-2.41,4.08-5.96,4.75-10.63h24.51Z"/>
  </g>
  <g>
    <rect y="2.25" width="47.86" height="89.31"/>
    <path class="cls-2" d="M34.42,86c-3.96-3.22-7.46-6.51-10.49-9.86-3.03,3.35-6.53,6.64-10.49,9.86l-2.61-3.2c3.95-3.22,7.42-6.49,10.39-9.82-7.49-9.25-11.52-18.93-12-28.92-.97-20.04,12.68-33.78,13.26-34.35l1.45-1.44,1.45,1.44c.58.57,14.23,14.31,13.26,34.35-.48,9.99-4.51,19.67-12,28.92,2.97,3.33,6.43,6.6,10.39,9.82l-2.61,3.2ZM23.93,14.27c-3.35,4.03-11.31,15.18-10.59,29.64.44,8.85,3.99,17.5,10.59,25.85,6.61-8.36,10.16-17.03,10.59-25.9.7-14.48-7.23-25.58-10.58-29.59Z"/>
  </g>
  <g>
    <path class="cls-1" d="M342.45,2.36h58.23v10.21h-46.64v28.24h44.12v10.34h-44.12v31.01h49.03l-1.89,10.21h-58.74V2.36Z"/>
    <path class="cls-1" d="M461.18,83.16c-2.69,3.53-5.8,6.28-9.33,8.26s-7.65,2.96-12.35,2.96-8.93-.88-12.42-2.65c-3.49-1.77-6.37-4.18-8.63-7.25-2.27-3.07-3.95-6.7-5.04-10.9-1.09-4.2-1.64-8.7-1.64-13.49,0-5.38.67-10.23,2.02-14.56,1.34-4.33,3.26-8,5.74-11.03,2.48-3.03,5.5-5.33,9.08-6.93,3.57-1.6,7.63-2.4,12.16-2.4,3.53,0,7.08.71,10.65,2.14,3.57,1.43,6.87,4.16,9.89,8.19v-8.32h10.84v89.62h-10.97v-33.65ZM461.44,57.82c0-5.21-.57-9.26-1.7-12.16-1.13-2.9-2.96-5.36-5.48-7.37-1.93-1.51-3.84-2.56-5.73-3.15-1.89-.59-3.97-.88-6.24-.88-2.69,0-5.19.46-7.5,1.39-2.31.93-4.33,2.42-6.05,4.48-1.72,2.06-3.07,4.71-4.03,7.94-.97,3.24-1.45,7.17-1.45,11.79s.52,8.82,1.58,12.1c1.05,3.28,2.44,5.88,4.16,7.82,1.72,1.93,3.67,3.32,5.86,4.16,2.18.84,4.41,1.26,6.68,1.26,2.44,0,4.6-.29,6.49-.88,1.89-.59,3.8-1.6,5.74-3.03,2.44-2.02,4.33-4.54,5.67-7.56,1.34-3.03,2.02-6.85,2.02-11.47v-4.41Z"/>
    <path class="cls-1" d="M488.79,27.19h10.97v41.09c0,6.05.99,10.34,2.96,12.86,1.97,2.52,5.19,3.78,9.64,3.78,4.87,0,9.28-1.77,13.23-5.3,2.1-1.85,3.7-3.8,4.79-5.86,1.09-2.06,1.64-4.73,1.64-8V27.19h10.97v65.17h-10.84v-10.08c-3.19,4.2-6.64,7.27-10.34,9.2-3.7,1.93-7.69,2.9-11.97,2.9-7.4,0-12.75-2-16.07-5.99-3.32-3.99-4.98-9.98-4.98-17.96V27.19Z"/>
    <path class="cls-1" d="M559.75,2.36h11.72v12.73h-11.72V2.36ZM560.13,27.19h10.97v65.17h-10.97V27.19Z"/>
    <path class="cls-1" d="M588.23,27.19h10.84v9.33c2.69-3.7,5.82-6.51,9.39-8.45,3.57-1.93,7.75-2.9,12.54-2.9s8.68.84,12.16,2.52c3.49,1.68,6.39,4.03,8.7,7.06,2.31,3.02,4.03,6.62,5.17,10.78,1.13,4.16,1.7,8.76,1.7,13.8,0,5.38-.67,10.23-2.02,14.56-1.34,4.33-3.28,8-5.8,11.03-2.52,3.02-5.57,5.36-9.14,7-3.57,1.64-7.58,2.46-12.04,2.46-3.7,0-7.33-.74-10.9-2.21-3.57-1.47-6.79-4.1-9.64-7.88v32.52h-10.97V27.19ZM599.07,61.6c0,4.2.48,7.8,1.45,10.78.96,2.98,2.29,5.44,3.97,7.37,1.68,1.93,3.7,3.34,6.05,4.22,2.35.88,4.92,1.32,7.69,1.32s5.19-.46,7.5-1.39c2.31-.92,4.31-2.41,5.99-4.47,1.68-2.06,3-4.73,3.97-8,.96-3.28,1.45-7.27,1.45-11.97s-.53-8.8-1.58-12.04c-1.05-3.23-2.42-5.82-4.1-7.75-1.68-1.93-3.59-3.32-5.74-4.16-2.14-.84-4.35-1.26-6.62-1.26-2.86,0-5.5.49-7.94,1.45-2.44.97-4.56,2.4-6.37,4.29-1.81,1.89-3.21,4.29-4.22,7.19-1.01,2.9-1.51,6.24-1.51,10.02v4.41Z"/>
    <path class="cls-1" d="M704.07,83.41c-2.35,2.86-5.34,5.31-8.95,7.37-3.61,2.06-8.11,3.09-13.49,3.09-3.28,0-6.28-.4-9.01-1.2-2.73-.8-5.09-2.02-7.06-3.66-1.98-1.64-3.51-3.68-4.6-6.11-1.09-2.44-1.64-5.3-1.64-8.57,0-4.45.95-8.07,2.84-10.84,1.89-2.77,4.41-4.96,7.56-6.55s6.7-2.73,10.65-3.4c3.95-.67,8.02-1.09,12.23-1.26l11.22-.38v-2.52c0-5.55-1.18-9.54-3.53-11.97-2.35-2.44-6.18-3.66-11.47-3.66s-9.03.86-11.47,2.58c-2.44,1.72-4.03,4.1-4.79,7.12l-9.96-1.13c1.18-5.97,3.99-10.32,8.45-13.05,4.45-2.73,10.5-4.1,18.15-4.1,4.71,0,8.68.57,11.91,1.7,3.23,1.13,5.86,2.75,7.88,4.85,2.02,2.1,3.47,4.71,4.35,7.82s1.32,6.6,1.32,10.46v42.35h-10.59v-8.95ZM703.82,59.71l-10.46.38c-4.45.17-8.15.59-11.09,1.26-2.94.68-5.27,1.58-7,2.71-1.72,1.13-2.94,2.54-3.65,4.22-.72,1.68-1.07,3.61-1.07,5.8,0,3.28.99,5.91,2.96,7.88,1.97,1.98,5.23,2.96,9.77,2.96,6.47,0,11.51-1.6,15.13-4.79,3.61-3.19,5.42-7.56,5.42-13.11v-7.31Z"/>
    <path class="cls-1" d="M731.3,27.19h10.84v9.96c2.94-4.03,6.18-7.04,9.71-9.01,3.53-1.97,7.14-2.96,10.84-2.96,4.87,0,8.8,1.05,11.79,3.15,2.98,2.1,5.19,5.13,6.62,9.08,2.94-4.03,6.3-7.08,10.08-9.14,3.78-2.06,7.82-3.09,12.1-3.09,6.38,0,11.32,1.75,14.81,5.23,3.49,3.49,5.23,9.1,5.23,16.83v45.12h-10.97v-42.6c0-2.94-.25-5.4-.76-7.37-.5-1.98-1.24-3.53-2.21-4.66-.97-1.13-2.16-1.93-3.59-2.39-1.43-.46-3.07-.69-4.92-.69s-3.95.34-6.05,1.01c-2.1.67-4.16,1.85-6.18,3.53-1.68,1.43-3.07,3.15-4.16,5.17-1.09,2.02-1.64,4.33-1.64,6.93v41.09h-10.97v-42.48c0-5.71-.99-9.68-2.96-11.91-1.98-2.23-4.81-3.34-8.51-3.34-4.28,0-8.32,1.76-12.1,5.29-1.43,1.34-2.79,3.07-4.1,5.17-1.3,2.1-1.95,4.92-1.95,8.45v38.82h-10.97V27.19Z"/>
    <path class="cls-1" d="M896.16,74.08c-1.09,6.3-3.89,11.26-8.38,14.87s-10.95,5.42-19.35,5.42c-9.92,0-17.52-3-22.81-9.01-5.29-6.01-7.94-14.39-7.94-25.15,0-5.63.76-10.63,2.27-15,1.51-4.37,3.63-8.02,6.37-10.97,2.73-2.94,5.99-5.19,9.77-6.74,3.78-1.55,7.9-2.33,12.35-2.33,5.04,0,9.37.8,12.98,2.4,3.61,1.6,6.57,3.8,8.89,6.62,2.31,2.82,4.03,6.16,5.17,10.02,1.14,3.87,1.7,8.11,1.7,12.73v5.55h-48.4c0,3.28.44,6.32,1.32,9.14.88,2.82,2.14,5.25,3.78,7.31,1.64,2.06,3.67,3.68,6.11,4.85,2.44,1.18,5.25,1.77,8.45,1.77,5.46,0,9.45-1.03,11.97-3.09,2.52-2.06,4.24-4.85,5.17-8.38h10.59ZM886.2,54.29c0-3.11-.34-5.93-1.01-8.45-.67-2.52-1.72-4.68-3.15-6.49-1.43-1.81-3.28-3.21-5.55-4.22-2.27-1.01-5-1.51-8.19-1.51-5.8,0-10.32,1.77-13.55,5.3-3.24,3.53-5.15,8.65-5.74,15.38h37.18Z"/>
    <path class="cls-1" d="M911.67,27.19h10.84v9.96c3.19-4.29,6.72-7.35,10.59-9.2,3.87-1.85,7.94-2.77,12.23-2.77,7.39,0,12.88,2.02,16.45,6.05,3.57,4.03,5.36,9.96,5.36,17.77v43.36h-10.97v-41.22c0-6.05-1.09-10.31-3.28-12.79-2.19-2.48-5.55-3.72-10.08-3.72-2.44,0-4.85.42-7.25,1.26-2.4.84-4.56,2.19-6.49,4.03-2.1,1.85-3.7,3.8-4.79,5.86-1.09,2.06-1.64,4.73-1.64,8v38.57h-10.97V27.19Z"/>
    <path class="cls-1" d="M987.29,35.89h-10.08v-8.7h10.08V9.42h10.97v17.77h17.27v8.7h-17.27v38.19c0,3.2.71,5.76,2.14,7.69,1.43,1.93,3.61,2.9,6.55,2.9,1.85,0,3.47-.13,4.85-.38,1.39-.25,2.67-.59,3.85-1.01l1.89,8.45c-1.68.59-3.51,1.07-5.48,1.45-1.98.38-4.31.57-7,.57-3.7,0-6.68-.55-8.95-1.64-2.27-1.09-4.08-2.65-5.42-4.66-1.34-2.02-2.25-4.41-2.71-7.19s-.69-5.8-.69-9.08v-35.29Z"/>
    <path class="cls-1" d="M1054.6,94.37c-4.96,0-9.37-.8-13.23-2.39-3.87-1.6-7.14-3.87-9.83-6.81-2.69-2.94-4.75-6.55-6.18-10.84-1.43-4.29-2.14-9.08-2.14-14.37s.76-10.08,2.27-14.37,3.65-7.94,6.43-10.97c2.77-3.03,6.11-5.36,10.02-7,3.91-1.64,8.26-2.46,13.05-2.46s9.24.8,13.11,2.4c3.86,1.6,7.16,3.89,9.89,6.87,2.73,2.98,4.81,6.58,6.24,10.78,1.43,4.2,2.14,8.95,2.14,14.24s-.74,10.21-2.21,14.49c-1.47,4.29-3.57,7.94-6.3,10.97-2.73,3.02-6.07,5.36-10.02,7-3.95,1.64-8.36,2.46-13.23,2.46ZM1054.73,85.3c3.53,0,6.55-.63,9.08-1.89,2.52-1.26,4.6-3.03,6.24-5.3,1.64-2.27,2.84-4.98,3.59-8.13.76-3.15,1.13-6.62,1.13-10.4s-.38-7.1-1.13-10.21-1.95-5.78-3.59-8c-1.64-2.23-3.72-3.97-6.24-5.23-2.52-1.26-5.55-1.89-9.08-1.89s-6.54.63-9.01,1.89c-2.48,1.26-4.54,3-6.18,5.23-1.64,2.23-2.84,4.9-3.59,8s-1.14,6.55-1.14,10.34.38,7.23,1.14,10.34c.76,3.11,1.93,5.8,3.53,8.07,1.59,2.27,3.65,4.03,6.18,5.3,2.52,1.26,5.55,1.89,9.08,1.89Z"/>
    <path class="cls-1" d="M1108.17,73.32c.76,4.54,2.67,7.71,5.74,9.52,3.07,1.81,7.25,2.71,12.54,2.71s9.47-.95,11.79-2.84c2.31-1.89,3.47-4.39,3.47-7.5,0-1.26-.15-2.46-.44-3.59-.29-1.14-.86-2.14-1.7-3.03-.84-.88-2.02-1.66-3.53-2.33-1.51-.67-3.49-1.22-5.93-1.64l-8.32-1.26c-3.7-.59-6.93-1.34-9.71-2.27-2.77-.92-5.13-2.12-7.06-3.59-1.93-1.47-3.38-3.28-4.35-5.42-.97-2.14-1.45-4.73-1.45-7.75s.65-5.71,1.95-8.07c1.3-2.35,3.11-4.35,5.42-5.99,2.31-1.64,5.04-2.9,8.19-3.78,3.15-.88,6.57-1.32,10.27-1.32,4.7,0,8.63.46,11.79,1.39,3.15.93,5.73,2.19,7.75,3.78,2.02,1.6,3.57,3.49,4.66,5.67,1.09,2.19,1.93,4.5,2.52,6.93l-9.96,1.64c-.59-1.76-1.26-3.32-2.02-4.66-.75-1.34-1.76-2.46-3.02-3.34s-2.79-1.55-4.6-2.02c-1.81-.46-4.05-.69-6.74-.69-3.03,0-5.55.27-7.56.82s-3.64,1.28-4.85,2.2c-1.22.93-2.08,1.96-2.58,3.09-.51,1.13-.76,2.33-.76,3.59,0,1.34.17,2.54.5,3.59.33,1.05.96,1.98,1.89,2.77.92.8,2.18,1.49,3.78,2.08,1.59.59,3.66,1.09,6.18,1.51l9.45,1.51c7.65,1.26,13.13,3.45,16.45,6.56,3.32,3.11,4.98,7.65,4.98,13.61,0,2.77-.55,5.31-1.64,7.63-1.09,2.31-2.73,4.33-4.92,6.05-2.19,1.72-4.92,3.07-8.19,4.03-3.28.97-7.1,1.45-11.47,1.45-3.95,0-7.63-.38-11.03-1.13s-6.41-1.95-9.01-3.59c-2.61-1.64-4.71-3.8-6.3-6.49-1.6-2.69-2.52-5.96-2.77-9.83h10.59Z"/>
  </g>
</svg>