<?xml version="1.0" encoding="UTF-8"?>
<svg id="svg1528" xmlns="http://www.w3.org/2000/svg" version="1.1" xmlns:cc="http://creativecommons.org/ns#" xmlns:dc="http://purl.org/dc/elements/1.1/" xmlns:rdf="http://www.w3.org/1999/02/22-rdf-syntax-ns#" xmlns:svg="http://www.w3.org/2000/svg" viewBox="0 0 168.42 26.92">
  <!-- Generator: Adobe Illustrator 29.5.1, SVG Export Plug-In . SVG Version: 2.1.0 Build 141)  -->
  <defs>
    <style>
      .st0 {
        fill: #f44336;
      }
    </style>
  </defs>
  <path id="_パス_4" data-name="パス_4" class="st0" d="M44.66,7.44h7.79l2.66,8.74,2.74-8.74h6.52l2.52,8.74,2.9-8.74h7.37l-5.73,18.62h-7.3l-2.94-9.12-2.52,9.12h-7.58l-6.43-18.62Z"/>
  <path id="_パス_5" data-name="パス_5" class="st0" d="M97.04,19.55h6.85c-.03,1.52,1.18,2.78,2.71,2.81.07,0,.15,0,.22,0,2.38,0,2.31-1.4,2.31-1.4,0,0,.07-1.44-2.55-1.86-2.94-.44-9.19-.98-9.19-6.19,0,0-.56-6.38,9.05-6.38,6.81,0,9.12,2.99,9.12,6.49h-6.53c-.16-1.2-1.2-2.09-2.41-2.06-1.43,0-2.23.53-2.23,1.19,0,.87.55,1.22,4.54,1.74,4.58.94,7.2,2.1,7.2,6.82s-4.93,6.25-9.36,6.25-9.72-1.47-9.72-7.41Z"/>
  <path id="_パス_6" data-name="パス_6" class="st0" d="M124.37,13.82h-6.83s-1.45-7.52,10.02-7.52c0,0,8.51-.49,8.95,6.11.45,6.6-.46,11.09,1.5,13.66h-7.31c-.4-.53-.74-1.11-1.01-1.71-1.64,1.59-3.87,2.43-6.15,2.31-4.19,0-6.55-2.45-6.55-5.59s1.83-5.45,7.67-6.5c2.34-.42,4.43-.7,4.54-1.99.11-1.29-1.68-1.54-2.13-1.54-1.39-.1-2.6.95-2.7,2.34-.01.14,0,.29,0,.43h0ZM125.11,19.05c-1.61.7-.8,1.92-.8,1.92.62.85,1.73,1.19,2.73.84,2.76-.73,2.55-4.4,2.55-4.4,0,0-2.86.94-4.47,1.64h0Z"/>
  <path id="_長方形_422" data-name="長方形_422" class="st0" d="M160.78.3h7.51v5.25h-7.51V.3Z"/>
  <path id="_長方形_423" data-name="長方形_423" class="st0" d="M160.78,7.43h7.51v18.63h-7.51V7.43Z"/>
  <path id="_パス_7" data-name="パス_7" class="st0" d="M146.14,26.06h-7.51V.29h7.51v11.57l3.81-4.43h8.84l-6.54,6.95,7.64,11.68h-8.66l-4.12-6.28-.97,1.03v5.25Z"/>
  <path id="_パス_8" data-name="パス_8" class="st0" d="M.21.29h7.82v7.85L15.87.29h9.79l-9.99,10.27,10.73,15.5h-10.19l-6.15-9.72-2.02,2.09v7.63H.21V.29Z"/>
  <path id="_パス_9" data-name="パス_9" class="st0" d="M32.86,13.82h-6.82s-1.45-7.52,10.01-7.52c0,0,8.51-.49,8.96,6.11.45,6.6-.47,11.09,1.5,13.66h-7.31c-.4-.53-.74-1.11-1.01-1.71-1.64,1.59-3.87,2.43-6.15,2.31-4.19,0-6.55-2.45-6.55-5.59s1.82-5.45,7.67-6.5c2.34-.42,4.44-.7,4.55-1.99s-1.68-1.54-2.13-1.54c-1.39-.1-2.61.95-2.71,2.34-.01.14,0,.29,0,.43ZM33.6,19.05c-1.61.7-.8,1.92-.8,1.92.62.85,1.73,1.19,2.73.84,2.76-.73,2.55-4.4,2.55-4.4,0,0-2.87.94-4.47,1.64Z"/>
  <path id="_パス_10" data-name="パス_10" class="st0" d="M83.68,13.82h-6.83s-1.45-7.52,10.01-7.52c0,0,8.51-.49,8.96,6.11.45,6.6-.46,11.09,1.5,13.66h-7.31c-.4-.53-.74-1.11-1.01-1.71-1.64,1.59-3.87,2.43-6.15,2.31-4.19,0-6.55-2.45-6.55-5.59s1.82-5.45,7.67-6.5c2.34-.42,4.44-.7,4.54-1.99s-1.68-1.54-2.13-1.54c-1.39-.1-2.6.95-2.7,2.35,0,.14,0,.29,0,.43ZM84.42,19.05c-1.6.7-.8,1.92-.8,1.92.62.85,1.73,1.19,2.72.84,2.76-.73,2.55-4.4,2.55-4.4,0,0-2.87.94-4.48,1.64h0Z"/>
</svg>