<?xml version="1.0" encoding="UTF-8"?>
<svg id="Layer_1" data-name="Layer 1" xmlns="http://www.w3.org/2000/svg" viewBox="0 0 931.23 94.37">
  <defs>
    <style>
      .cls-1 {
        fill: #0060c6;
      }

      .cls-2 {
        fill: #ff0;
      }
    </style>
  </defs>
  <g>
    <path class="cls-1" d="M66.26,91.56V2.25h35.15c14.76,0,25.98,3.71,33.64,11.13,7.67,7.42,11.53,18.26,11.53,32.52s-4.04,25.95-12.08,33.84c-8.06,7.88-19.54,11.82-34.46,11.82h-33.77ZM100.4,71.3c14.18,0,21.26-8.21,21.26-24.64,0-8.17-1.65-14.23-4.95-18.2-3.29-3.96-8.31-5.94-15.06-5.94h-11.38v48.78h10.13Z"/>
    <path class="cls-1" d="M205.34,91.56l-32.14-51.16v51.16h-22.76V2.25h21.01l32.14,51.15V2.25h22.77v89.31h-21.02Z"/>
    <path class="cls-1" d="M312.53,58.91c-.66,10.93-4.5,19.47-11.5,25.65-7,6.17-16.39,9.25-28.14,9.25-13.51,0-23.99-4.06-31.45-12.19-7.47-8.13-11.2-19.53-11.2-34.21s3.82-26.45,11.44-34.84c7.63-8.38,18.24-12.57,31.84-12.57,10.67,0,19.18,2.65,25.51,7.94,6.34,5.3,10.38,13.16,12.13,23.58l-23.89,2.75c-1-4.83-2.65-8.32-4.94-10.44-2.29-2.13-5.49-3.19-9.57-3.19-11.43,0-17.14,8.72-17.14,26.14s5.8,26.39,17.39,26.39c4.34,0,7.76-1.2,10.26-3.62,2.5-2.41,4.08-5.96,4.75-10.63h24.51Z"/>
  </g>
  <g>
    <rect y="2.25" width="47.86" height="89.31"/>
    <path class="cls-2" d="M34.42,86c-3.96-3.22-7.46-6.51-10.49-9.86-3.03,3.35-6.53,6.64-10.49,9.86l-2.61-3.2c3.95-3.22,7.42-6.49,10.39-9.82-7.49-9.25-11.52-18.93-12-28.92-.97-20.04,12.68-33.78,13.26-34.35l1.45-1.44,1.45,1.44c.58.57,14.23,14.31,13.26,34.35-.48,9.99-4.51,19.67-12,28.92,2.97,3.33,6.43,6.6,10.39,9.82l-2.61,3.2ZM23.93,14.27c-3.35,4.03-11.31,15.18-10.59,29.64.44,8.85,3.99,17.5,10.59,25.85,6.61-8.36,10.16-17.03,10.59-25.9.7-14.48-7.23-25.58-10.58-29.59Z"/>
  </g>
  <g>
    <path class="cls-1" d="M357.38,3.53v53.27c0,8.38,1.51,14.62,4.54,18.73,3.03,4.11,8.15,6.16,15.37,6.16s12.17-2.05,15.12-6.16c2.94-4.11,4.42-10.35,4.42-18.73V3.53h15.06v53.27c0,6.89-.83,12.72-2.49,17.49-1.66,4.77-4.03,8.67-7.09,11.7-3.07,3.03-6.72,5.23-10.95,6.6-4.23,1.37-8.96,2.05-14.19,2.05-11.37,0-20-3.05-25.89-9.15-5.89-6.1-8.84-15.78-8.84-29.06V3.53h14.93Z"/>
    <path class="cls-1" d="M441.76,27.67v9.46c2.9-3.98,6.16-6.89,9.77-8.71,3.61-1.82,7.49-2.74,11.64-2.74,14.44,0,21.65,7.96,21.65,23.89v42.81h-14.19v-40.57c0-5.23-.95-8.9-2.86-11.01-1.91-2.12-4.73-3.17-8.46-3.17-2.49,0-4.79.44-6.91,1.31-2.12.87-3.92,2.05-5.41,3.55s-2.68,3.22-3.55,5.16c-.87,1.95-1.31,4-1.31,6.16v38.58h-14.06V27.67h13.69Z"/>
    <path class="cls-1" d="M514.94,3.53v14.06h-14.69V3.53h14.69ZM514.69,27.67v64.72h-14.19V27.67h14.19Z"/>
    <path class="cls-1" d="M534.97,38.87h-10.08v-11.2h10.08v-3.73c0-6.8,1.87-12.07,5.6-15.81,3.73-3.73,8.92-5.6,15.56-5.6,4.4,0,8.46.58,12.2,1.74l-2.12,10.58c-2.49-.75-4.98-1.12-7.47-1.12-3.07,0-5.44.83-7.09,2.49-1.66,1.66-2.49,4.11-2.49,7.34v4.11h15.68v11.2h-15.68v53.52h-14.19v-53.52Z"/>
    <path class="cls-1" d="M603.05,94.38c-10.12,0-17.96-2.99-23.52-8.96-5.56-5.97-8.34-14.44-8.34-25.39,0-5.14.73-9.83,2.18-14.06,1.45-4.23,3.55-7.84,6.29-10.83,2.74-2.99,6.1-5.31,10.08-6.97,3.98-1.66,8.5-2.49,13.57-2.49s9.71.85,13.69,2.55c3.98,1.7,7.32,4.04,10.02,7.03,2.7,2.99,4.73,6.58,6.1,10.77,1.37,4.19,2.05,8.77,2.05,13.75,0,5.64-.79,10.6-2.36,14.87-1.58,4.27-3.8,7.88-6.66,10.83-2.86,2.95-6.24,5.17-10.14,6.66-3.9,1.49-8.21,2.24-12.94,2.24ZM603.17,82.93c5.97,0,10.35-2.05,13.13-6.16,2.78-4.11,4.17-9.73,4.17-16.86s-1.39-12.61-4.17-16.68c-2.78-4.06-7.16-6.1-13.13-6.1s-10.35,2.05-13.13,6.16c-2.78,4.11-4.17,9.65-4.17,16.61s1.35,12.65,4.04,16.8c2.7,4.15,7.11,6.22,13.25,6.22Z"/>
    <path class="cls-1" d="M662.91,27.67v9.58c2.24-3.4,4.94-6.01,8.09-7.84,3.15-1.82,6.51-2.74,10.08-2.74,1.41,0,2.59.04,3.55.12.95.08,1.88.21,2.8.37l-1.62,12.94c-.91-.25-1.91-.41-2.99-.5-1.08-.08-2.2-.12-3.36-.12-2.66,0-4.98.44-6.97,1.31s-3.67,2.01-5.04,3.42c-1.37,1.41-2.41,3.01-3.11,4.79-.71,1.79-1.06,3.59-1.06,5.41v37.96h-14.06V27.67h13.69Z"/>
    <path class="cls-1" d="M711.82,27.67v9.33c4.48-6.22,9.79-9.83,15.93-10.83,1.58-.25,3.24-.37,4.98-.37,4.4.17,7.97,1.27,10.7,3.3,2.74,2.03,4.73,4.79,5.97,8.28,5.73-7.8,12.78-11.7,21.16-11.7,6.89,0,11.95,1.91,15.18,5.72,3.24,3.82,4.85,9.92,4.85,18.3v42.69h-14.19v-38.83c0-3.15-.21-5.77-.62-7.84-.42-2.07-1.02-3.71-1.8-4.92-.79-1.2-1.8-2.03-3.05-2.49-1.25-.45-2.66-.68-4.23-.68-2.49,0-4.69.46-6.6,1.37-1.91.91-3.51,2.12-4.79,3.61-1.29,1.49-2.26,3.17-2.92,5.04-.66,1.87-1,3.8-1,5.79v38.95h-14.19v-40.2c0-5.56-.85-9.37-2.55-11.45-1.7-2.07-4.04-3.11-7.03-3.11-1.24,0-2.74.27-4.48.81-1.74.54-3.42,1.43-5.04,2.68-1.62,1.24-3.01,2.91-4.17,4.98-1.16,2.07-1.74,4.6-1.74,7.59v38.7h-14.06V27.67h13.69Z"/>
    <path class="cls-1" d="M863.65,73.22c-1.16,6.72-4.03,11.93-8.59,15.62-4.56,3.69-11.12,5.54-19.66,5.54-10.29,0-18.11-2.97-23.46-8.9-5.35-5.93-8.03-14.29-8.03-25.08,0-5.56.77-10.5,2.3-14.81,1.53-4.31,3.69-7.94,6.47-10.89,2.78-2.94,6.1-5.18,9.96-6.72,3.86-1.53,8.11-2.3,12.76-2.3,4.98,0,9.29.77,12.94,2.3,3.65,1.54,6.68,3.69,9.08,6.47,2.41,2.78,4.19,6.1,5.35,9.96,1.16,3.86,1.74,8.15,1.74,12.88v6.22h-46.42c.16,5.89,1.66,10.66,4.48,14.31,2.82,3.65,7.09,5.48,12.82,5.48,4.48,0,7.84-.87,10.08-2.61,2.24-1.74,3.73-4.23,4.48-7.47h13.69ZM850.71,53.68c0-5.31-1.24-9.5-3.73-12.57-2.49-3.07-6.47-4.6-11.95-4.6s-9.21,1.56-11.95,4.67c-2.74,3.11-4.32,7.28-4.73,12.51h32.36Z"/>
    <path class="cls-1" d="M888.04,72.6c.25,2.16.83,3.92,1.74,5.29.91,1.37,2.05,2.47,3.42,3.3,1.37.83,2.97,1.39,4.79,1.68,1.82.29,3.77.44,5.85.44,4.73,0,8.13-.7,10.21-2.12,2.07-1.41,3.11-3.49,3.11-6.22,0-2.16-.64-3.98-1.93-5.48-1.29-1.49-3.92-2.57-7.9-3.24-5.15-.91-9.67-1.78-13.56-2.61-3.9-.83-7.18-1.97-9.83-3.42-2.66-1.45-4.65-3.32-5.97-5.6-1.33-2.28-1.99-5.37-1.99-9.27,0-2.99.66-5.7,1.99-8.15,1.33-2.45,3.17-4.52,5.54-6.22,2.37-1.7,5.18-3.01,8.46-3.92,3.28-.91,6.86-1.37,10.76-1.37,4.98,0,9.13.5,12.45,1.49,3.32,1,6.01,2.36,8.09,4.11,2.07,1.74,3.65,3.73,4.73,5.97,1.08,2.24,1.91,4.6,2.49,7.09l-12.69,1.74c-1-3.24-2.51-5.64-4.54-7.22-2.03-1.58-5.41-2.36-10.14-2.36-2.74,0-4.98.25-6.72.75s-3.13,1.12-4.17,1.87c-1.04.75-1.74,1.58-2.12,2.49-.37.91-.56,1.83-.56,2.74,0,1.41.16,2.57.5,3.49.33.91.93,1.66,1.8,2.24.87.58,2.05,1.08,3.55,1.49,1.49.42,3.36.83,5.6,1.24l8.09,1.37c4.31.75,7.9,1.7,10.77,2.86,2.86,1.16,5.14,2.59,6.84,4.29,1.7,1.7,2.88,3.67,3.55,5.91.66,2.24,1,4.73,1,7.47,0,5.89-2.24,10.64-6.72,14.25-4.48,3.61-11.28,5.41-20.41,5.41-3.73,0-7.32-.35-10.77-1.06-3.44-.71-6.53-1.89-9.27-3.55-2.74-1.66-4.96-3.88-6.66-6.66-1.7-2.78-2.68-6.29-2.92-10.52h13.56Z"/>
  </g>
</svg>