<?xml version="1.0" encoding="UTF-8"?>
<svg id="Layer_1" data-name="Layer 1" xmlns="http://www.w3.org/2000/svg" viewBox="0 0 312.53 153">
  <defs>
    <style>
      .cls-1 {
        fill: #0060c6;
      }

      .cls-2 {
        fill: #ff0;
      }
    </style>
  </defs>
  <g>
    <path class="cls-1" d="M66.26,91.56V2.25h35.15c14.76,0,25.98,3.71,33.64,11.13,7.67,7.42,11.53,18.26,11.53,32.52s-4.04,25.95-12.08,33.84c-8.06,7.88-19.54,11.82-34.46,11.82h-33.77ZM100.4,71.3c14.18,0,21.26-8.21,21.26-24.64,0-8.17-1.65-14.23-4.95-18.2-3.29-3.96-8.31-5.94-15.06-5.94h-11.38v48.78h10.13Z"/>
    <path class="cls-1" d="M205.34,91.56l-32.14-51.16v51.16h-22.76V2.25h21.01l32.14,51.15V2.25h22.77v89.31h-21.02Z"/>
    <path class="cls-1" d="M312.53,58.91c-.66,10.93-4.5,19.47-11.5,25.65-7,6.17-16.39,9.25-28.14,9.25-13.51,0-23.99-4.06-31.45-12.19-7.47-8.13-11.2-19.53-11.2-34.21s3.82-26.45,11.44-34.84c7.63-8.38,18.24-12.57,31.84-12.57,10.67,0,19.18,2.65,25.51,7.94,6.34,5.3,10.38,13.16,12.13,23.58l-23.89,2.75c-1-4.83-2.65-8.32-4.94-10.44-2.29-2.13-5.49-3.19-9.57-3.19-11.43,0-17.14,8.72-17.14,26.14s5.8,26.39,17.39,26.39c4.34,0,7.76-1.2,10.26-3.62,2.5-2.41,4.08-5.96,4.75-10.63h24.51Z"/>
  </g>
  <g>
    <rect y="2.25" width="47.86" height="89.31"/>
    <path class="cls-2" d="M34.42,86c-3.96-3.22-7.46-6.51-10.49-9.86-3.03,3.35-6.53,6.64-10.49,9.86l-2.61-3.2c3.95-3.22,7.42-6.49,10.39-9.82-7.49-9.25-11.52-18.93-12-28.92-.97-20.04,12.68-33.78,13.26-34.35l1.45-1.44,1.45,1.44c.58.57,14.23,14.31,13.26,34.35-.48,9.99-4.51,19.67-12,28.92,2.97,3.33,6.43,6.6,10.39,9.82l-2.61,3.2ZM23.93,14.27c-3.35,4.03-11.31,15.18-10.59,29.64.44,8.85,3.99,17.5,10.59,25.85,6.61-8.36,10.16-17.03,10.59-25.9.7-14.48-7.23-25.58-10.58-29.59Z"/>
  </g>
  <g>
    <path class="cls-1" d="M0,108.86h22.46v3.94H4.47v10.89h17.01v3.99H4.47v11.96h18.91l-.73,3.94H0v-34.7Z"/>
    <path class="cls-1" d="M45.79,140.02c-1.04,1.36-2.24,2.42-3.6,3.18s-2.95,1.14-4.76,1.14-3.44-.34-4.79-1.02c-1.34-.68-2.45-1.61-3.33-2.8-.88-1.18-1.52-2.58-1.94-4.2-.42-1.62-.63-3.35-.63-5.2,0-2.07.26-3.94.78-5.61.52-1.67,1.26-3.09,2.21-4.25.96-1.17,2.12-2.06,3.5-2.67,1.38-.62,2.94-.92,4.69-.92,1.36,0,2.73.28,4.11.83,1.38.55,2.65,1.6,3.82,3.16v-3.21h4.18v34.56h-4.23v-12.98ZM45.88,130.25c0-2.01-.22-3.57-.66-4.69-.44-1.12-1.14-2.07-2.11-2.84-.75-.58-1.48-.99-2.21-1.21-.73-.23-1.53-.34-2.41-.34-1.04,0-2,.18-2.89.53-.89.36-1.67.93-2.33,1.73-.66.79-1.18,1.81-1.56,3.06-.37,1.25-.56,2.76-.56,4.55s.2,3.4.61,4.67c.4,1.26.94,2.27,1.6,3.01.66.75,1.42,1.28,2.26,1.6.84.32,1.7.49,2.58.49.94,0,1.77-.11,2.5-.34.73-.23,1.47-.62,2.21-1.17.94-.78,1.67-1.75,2.19-2.92.52-1.17.78-2.64.78-4.42v-1.7Z"/>
    <path class="cls-1" d="M56.43,118.44h4.23v15.85c0,2.33.38,3.99,1.14,4.96.76.97,2,1.46,3.72,1.46,1.88,0,3.58-.68,5.1-2.04.81-.71,1.43-1.47,1.85-2.26.42-.79.63-1.82.63-3.09v-14.87h4.23v25.13h-4.18v-3.89c-1.23,1.62-2.56,2.8-3.99,3.55-1.43.74-2.96,1.12-4.62,1.12-2.85,0-4.92-.77-6.2-2.31-1.28-1.54-1.92-3.85-1.92-6.93v-16.67Z"/>
    <path class="cls-1" d="M83.79,108.86h4.52v4.91h-4.52v-4.91ZM83.94,118.44h4.23v25.13h-4.23v-25.13Z"/>
    <path class="cls-1" d="M94.78,118.44h4.18v3.6c1.04-1.43,2.24-2.51,3.62-3.26,1.38-.74,2.99-1.12,4.84-1.12s3.35.32,4.69.97c1.34.65,2.46,1.56,3.35,2.72.89,1.17,1.56,2.55,1.99,4.16.44,1.6.66,3.38.66,5.32,0,2.07-.26,3.95-.78,5.61-.52,1.67-1.26,3.09-2.24,4.25-.97,1.17-2.15,2.07-3.52,2.7-1.38.63-2.92.95-4.64.95-1.43,0-2.83-.28-4.2-.85-1.38-.57-2.62-1.58-3.72-3.04v12.54h-4.23v-34.56ZM98.96,131.71c0,1.62.19,3.01.56,4.16.37,1.15.88,2.1,1.53,2.84.65.75,1.43,1.29,2.33,1.63.91.34,1.9.51,2.96.51s2-.18,2.89-.53c.89-.36,1.66-.93,2.31-1.73.65-.79,1.16-1.82,1.53-3.09.37-1.26.56-2.8.56-4.62s-.2-3.39-.61-4.64c-.41-1.25-.93-2.24-1.58-2.99-.65-.74-1.39-1.28-2.21-1.6-.83-.32-1.68-.49-2.55-.49-1.1,0-2.12.19-3.06.56-.94.37-1.76.92-2.45,1.65-.7.73-1.24,1.65-1.63,2.77-.39,1.12-.58,2.41-.58,3.86v1.7Z"/>
    <path class="cls-1" d="M139.45,140.12c-.91,1.1-2.06,2.05-3.45,2.84-1.39.79-3.13,1.19-5.2,1.19-1.26,0-2.42-.15-3.48-.46-1.05-.31-1.96-.78-2.72-1.41-.76-.63-1.35-1.42-1.77-2.36-.42-.94-.63-2.04-.63-3.31,0-1.72.36-3.11,1.09-4.18.73-1.07,1.7-1.91,2.92-2.53s2.58-1.05,4.11-1.31c1.52-.26,3.09-.42,4.71-.49l4.33-.15v-.97c0-2.14-.45-3.68-1.36-4.62-.91-.94-2.38-1.41-4.42-1.41s-3.48.33-4.42,1c-.94.66-1.56,1.58-1.85,2.75l-3.84-.44c.45-2.3,1.54-3.98,3.26-5.03,1.72-1.05,4.05-1.58,7-1.58,1.81,0,3.35.22,4.59.66,1.25.44,2.26,1.06,3.04,1.87.78.81,1.34,1.81,1.68,3.01s.51,2.54.51,4.03v16.33h-4.08v-3.45ZM139.35,130.98l-4.03.15c-1.72.07-3.14.23-4.28.49-1.13.26-2.03.61-2.7,1.05-.66.44-1.13.98-1.41,1.63-.28.65-.41,1.39-.41,2.24,0,1.26.38,2.28,1.14,3.04.76.76,2.02,1.14,3.77,1.14,2.5,0,4.44-.62,5.83-1.85,1.39-1.23,2.09-2.92,2.09-5.06v-2.82Z"/>
    <path class="cls-1" d="M149.94,118.44h4.18v3.84c1.13-1.56,2.38-2.71,3.74-3.48,1.36-.76,2.75-1.14,4.18-1.14,1.88,0,3.39.41,4.54,1.22,1.15.81,2,1.98,2.55,3.5,1.13-1.56,2.43-2.73,3.89-3.52,1.46-.79,3.01-1.19,4.67-1.19,2.46,0,4.37.67,5.71,2.02,1.34,1.34,2.02,3.51,2.02,6.49v17.4h-4.23v-16.43c0-1.13-.1-2.08-.29-2.84-.19-.76-.48-1.36-.85-1.8-.37-.44-.83-.74-1.39-.92-.55-.18-1.18-.27-1.9-.27s-1.52.13-2.33.39c-.81.26-1.6.71-2.38,1.36-.65.55-1.18,1.22-1.6,1.99-.42.78-.63,1.67-.63,2.67v15.85h-4.23v-16.38c0-2.2-.38-3.73-1.14-4.59-.76-.86-1.86-1.29-3.28-1.29-1.65,0-3.21.68-4.67,2.04-.55.52-1.08,1.18-1.58,1.99-.5.81-.75,1.9-.75,3.26v14.97h-4.23v-25.13Z"/>
    <path class="cls-1" d="M213.52,136.52c-.42,2.43-1.5,4.34-3.23,5.74s-4.22,2.09-7.46,2.09c-3.82,0-6.76-1.16-8.8-3.48-2.04-2.32-3.06-5.55-3.06-9.7,0-2.17.29-4.1.87-5.78.58-1.68,1.4-3.09,2.45-4.23,1.05-1.13,2.31-2,3.77-2.6,1.46-.6,3.05-.9,4.76-.9,1.94,0,3.61.31,5.01.92,1.39.62,2.54,1.47,3.43,2.55.89,1.09,1.56,2.37,1.99,3.86.44,1.49.66,3.13.66,4.91v2.14h-18.66c0,1.26.17,2.44.51,3.52.34,1.09.83,2.03,1.46,2.82.63.79,1.42,1.42,2.36,1.87.94.45,2.03.68,3.26.68,2.11,0,3.65-.4,4.62-1.19.97-.79,1.64-1.87,1.99-3.23h4.08ZM209.68,128.89c0-1.2-.13-2.28-.39-3.26-.26-.97-.66-1.81-1.22-2.5-.55-.7-1.26-1.24-2.14-1.63-.87-.39-1.93-.58-3.16-.58-2.24,0-3.98.68-5.23,2.04-1.25,1.36-1.99,3.34-2.21,5.93h14.34Z"/>
    <path class="cls-1" d="M219.5,118.44h4.18v3.84c1.23-1.65,2.59-2.83,4.08-3.55,1.49-.71,3.06-1.07,4.72-1.07,2.85,0,4.96.78,6.34,2.33,1.38,1.56,2.07,3.84,2.07,6.85v16.72h-4.23v-15.89c0-2.33-.42-3.98-1.26-4.93-.84-.96-2.14-1.43-3.89-1.43-.94,0-1.87.16-2.79.49-.92.32-1.76.84-2.5,1.56-.81.71-1.43,1.47-1.85,2.26-.42.79-.63,1.82-.63,3.09v14.87h-4.23v-25.13Z"/>
    <path class="cls-1" d="M248.66,121.79h-3.89v-3.35h3.89v-6.85h4.23v6.85h6.66v3.35h-6.66v14.73c0,1.23.27,2.22.83,2.96.55.75,1.39,1.12,2.53,1.12.71,0,1.34-.05,1.87-.15.53-.1,1.03-.23,1.48-.39l.73,3.26c-.65.23-1.35.41-2.11.56-.76.15-1.66.22-2.7.22-1.43,0-2.58-.21-3.45-.63-.88-.42-1.57-1.02-2.09-1.8-.52-.78-.87-1.7-1.05-2.77s-.27-2.24-.27-3.5v-13.61Z"/>
    <path class="cls-1" d="M274.61,144.35c-1.91,0-3.61-.31-5.1-.92-1.49-.62-2.75-1.49-3.79-2.63-1.04-1.13-1.83-2.53-2.38-4.18-.55-1.65-.83-3.5-.83-5.54s.29-3.89.88-5.54,1.41-3.06,2.48-4.23c1.07-1.17,2.36-2.07,3.86-2.7,1.51-.63,3.18-.95,5.03-.95s3.56.31,5.06.92c1.49.62,2.76,1.5,3.82,2.65,1.05,1.15,1.85,2.54,2.41,4.16.55,1.62.83,3.45.83,5.49s-.28,3.94-.85,5.59c-.57,1.65-1.38,3.06-2.43,4.23-1.05,1.17-2.34,2.07-3.86,2.7-1.52.63-3.22.95-5.1.95ZM274.66,140.85c1.36,0,2.53-.24,3.5-.73.97-.49,1.77-1.17,2.41-2.04.63-.87,1.09-1.92,1.39-3.13.29-1.21.44-2.55.44-4.01s-.15-2.74-.44-3.94-.75-2.23-1.39-3.09c-.63-.86-1.43-1.53-2.41-2.02-.97-.49-2.14-.73-3.5-.73s-2.52.24-3.48.73c-.96.49-1.75,1.16-2.38,2.02-.63.86-1.09,1.89-1.39,3.09s-.44,2.53-.44,3.99.15,2.79.44,3.99c.29,1.2.74,2.24,1.36,3.11.61.88,1.41,1.56,2.38,2.04.97.49,2.14.73,3.5.73Z"/>
    <path class="cls-1" d="M295.27,136.23c.29,1.75,1.03,2.97,2.21,3.67,1.18.7,2.79,1.04,4.84,1.04s3.65-.36,4.54-1.09c.89-.73,1.34-1.69,1.34-2.89,0-.49-.06-.95-.17-1.39-.11-.44-.33-.83-.66-1.17-.32-.34-.78-.64-1.36-.9-.58-.26-1.34-.47-2.28-.63l-3.21-.49c-1.43-.23-2.67-.52-3.74-.88-1.07-.36-1.98-.82-2.72-1.39-.75-.57-1.3-1.26-1.68-2.09-.37-.83-.56-1.82-.56-2.99s.25-2.2.75-3.11c.5-.91,1.2-1.68,2.09-2.31.89-.63,1.94-1.12,3.16-1.46,1.22-.34,2.54-.51,3.96-.51,1.81,0,3.33.18,4.54.53,1.21.36,2.21.84,2.99,1.46.78.62,1.38,1.34,1.8,2.19.42.84.74,1.73.97,2.67l-3.84.63c-.23-.68-.49-1.28-.78-1.8-.29-.52-.68-.95-1.17-1.29s-1.08-.6-1.77-.78c-.7-.18-1.56-.27-2.6-.27-1.17,0-2.14.11-2.92.32s-1.4.49-1.87.85c-.47.36-.8.75-1,1.19-.19.44-.29.9-.29,1.39,0,.52.06.98.19,1.39.13.41.37.76.73,1.07.36.31.84.58,1.46.8.61.23,1.41.42,2.38.58l3.65.58c2.95.49,5.06,1.33,6.34,2.53,1.28,1.2,1.92,2.95,1.92,5.25,0,1.07-.21,2.05-.63,2.94-.42.89-1.05,1.67-1.9,2.33-.84.66-1.9,1.18-3.16,1.56-1.26.37-2.74.56-4.42.56-1.52,0-2.94-.15-4.25-.44s-2.47-.75-3.48-1.39c-1-.63-1.81-1.47-2.43-2.5-.62-1.04-.97-2.3-1.07-3.79h4.08Z"/>
  </g>
</svg>