<?xml version="1.0" encoding="UTF-8"?>
<svg id="Layer_1" data-name="Layer 1" xmlns="http://www.w3.org/2000/svg" viewBox="0 0 312.53 93.81">
  <defs>
    <style>
      .cls-1 {
        fill: #0060c6;
      }

      .cls-2 {
        fill: #ff0;
      }
    </style>
  </defs>
  <g>
    <path class="cls-1" d="M66.26,91.56V2.25h35.15c14.76,0,25.98,3.71,33.64,11.13,7.67,7.42,11.53,18.26,11.53,32.52s-4.04,25.95-12.08,33.84c-8.06,7.88-19.54,11.82-34.46,11.82h-33.77ZM100.4,71.3c14.18,0,21.26-8.21,21.26-24.64,0-8.17-1.65-14.23-4.95-18.2-3.29-3.96-8.31-5.94-15.06-5.94h-11.38v48.78h10.13Z"/>
    <path class="cls-1" d="M205.34,91.56l-32.14-51.16v51.16h-22.76V2.25h21.01l32.14,51.15V2.25h22.77v89.31h-21.02Z"/>
    <path class="cls-1" d="M312.53,58.91c-.66,10.93-4.5,19.47-11.5,25.65-7,6.17-16.39,9.25-28.14,9.25-13.51,0-23.99-4.06-31.45-12.19-7.47-8.13-11.2-19.53-11.2-34.21s3.82-26.45,11.44-34.84c7.63-8.38,18.24-12.57,31.84-12.57,10.67,0,19.18,2.65,25.51,7.94,6.34,5.3,10.38,13.16,12.13,23.58l-23.89,2.75c-1-4.83-2.65-8.32-4.94-10.44-2.29-2.13-5.49-3.19-9.57-3.19-11.43,0-17.14,8.72-17.14,26.14s5.8,26.39,17.39,26.39c4.34,0,7.76-1.2,10.26-3.62,2.5-2.41,4.08-5.96,4.75-10.63h24.51Z"/>
  </g>
  <g>
    <rect y="2.25" width="47.86" height="89.31"/>
    <path class="cls-2" d="M34.42,86c-3.96-3.22-7.46-6.51-10.49-9.86-3.03,3.35-6.53,6.64-10.49,9.86l-2.61-3.2c3.95-3.22,7.42-6.49,10.39-9.82-7.49-9.25-11.52-18.93-12-28.92-.97-20.04,12.68-33.78,13.26-34.35l1.45-1.44,1.45,1.44c.58.57,14.23,14.31,13.26,34.35-.48,9.99-4.51,19.67-12,28.92,2.97,3.33,6.43,6.6,10.39,9.82l-2.61,3.2ZM23.93,14.27c-3.35,4.03-11.31,15.18-10.59,29.64.44,8.85,3.99,17.5,10.59,25.85,6.61-8.36,10.16-17.03,10.59-25.9.7-14.48-7.23-25.58-10.58-29.59Z"/>
  </g>
</svg>