<?xml version="1.0" encoding="UTF-8"?>
<svg id="Layer_1" data-name="Layer 1" xmlns="http://www.w3.org/2000/svg" viewBox="0 0 16 16">
  <defs>
    <style>
      .cls-1 {
        fill: #fff;
      }

      .cls-2 {
        fill: #0060c6;
      }
    </style>
  </defs>
  <rect class="cls-2" x="-.25" y="-.25" width="16.5" height="16.5"/>
  <g>
    <path class="cls-1" d="M1.39,10.4v-4.8h1.89c.79,0,1.4.2,1.81.6.41.4.62.98.62,1.75s-.22,1.39-.65,1.82c-.43.42-1.05.63-1.85.63h-1.81ZM3.22,9.31c.76,0,1.14-.44,1.14-1.32,0-.44-.09-.76-.27-.98-.18-.21-.45-.32-.81-.32h-.61v2.62h.54Z"/>
    <path class="cls-1" d="M8.86,10.4l-1.73-2.75v2.75h-1.22v-4.8h1.13l1.73,2.75v-2.75h1.22v4.8h-1.13Z"/>
    <path class="cls-1" d="M14.61,8.64c-.04.59-.24,1.05-.62,1.38-.38.33-.88.5-1.51.5-.73,0-1.29-.22-1.69-.65-.4-.44-.6-1.05-.6-1.84s.2-1.42.61-1.87c.41-.45.98-.68,1.71-.68.57,0,1.03.14,1.37.43.34.28.56.71.65,1.27l-1.28.15c-.05-.26-.14-.45-.27-.56s-.29-.17-.51-.17c-.61,0-.92.47-.92,1.4s.31,1.42.93,1.42c.23,0,.42-.06.55-.19.13-.13.22-.32.26-.57h1.32Z"/>
  </g>
</svg>