<?xml version="1.0" encoding="UTF-8"?>
<svg id="Layer_1" data-name="Layer 1" xmlns="http://www.w3.org/2000/svg" viewBox="0 0 32 32">
  <defs>
    <style>
      .cls-1 {
        fill: #fff;
      }

      .cls-2 {
        fill: #0060c6;
      }
    </style>
  </defs>
  <rect class="cls-2" x="-.13" y="-.13" width="32.27" height="32.27"/>
  <g>
    <path class="cls-1" d="M3.07,20.69v-9.38h3.69c1.55,0,2.73.39,3.53,1.17.81.78,1.21,1.92,1.21,3.42s-.42,2.73-1.27,3.55c-.85.83-2.05,1.24-3.62,1.24h-3.55ZM6.65,18.56c1.49,0,2.23-.86,2.23-2.59,0-.86-.17-1.49-.52-1.91-.35-.42-.87-.62-1.58-.62h-1.2v5.12h1.06Z"/>
    <path class="cls-1" d="M17.67,20.69l-3.38-5.37v5.37h-2.39v-9.38h2.21l3.38,5.37v-5.37h2.39v9.38h-2.21Z"/>
    <path class="cls-1" d="M28.93,17.26c-.07,1.15-.47,2.04-1.21,2.69-.74.65-1.72.97-2.96.97-1.42,0-2.52-.43-3.3-1.28-.78-.85-1.18-2.05-1.18-3.59s.4-2.78,1.2-3.66c.8-.88,1.92-1.32,3.34-1.32,1.12,0,2.01.28,2.68.83.67.56,1.09,1.38,1.27,2.48l-2.51.29c-.1-.51-.28-.87-.52-1.1s-.58-.34-1-.34c-1.2,0-1.8.92-1.8,2.75s.61,2.77,1.83,2.77c.46,0,.81-.13,1.08-.38.26-.25.43-.63.5-1.12h2.57Z"/>
  </g>
</svg>