<?xml version="1.0" encoding="UTF-8"?>
<svg id="Layer_1" data-name="Layer 1" xmlns="http://www.w3.org/2000/svg" viewBox="0 0 256 256">
  <defs>
    <style>
      .cls-1 {
        fill: #fff;
      }

      .cls-2 {
        fill: none;
        stroke: #fff;
        stroke-miterlimit: 10;
        stroke-width: .71px;
      }

      .cls-3 {
        fill: #0060c6;
      }

      .cls-4 {
        fill: #ff0;
      }
    </style>
  </defs>
  <rect class="cls-3" width="256" height="256"/>
  <g>
    <g>
      <g>
        <path class="cls-1" d="M68.91,143.47v-58.63h23.07c9.69,0,17.06,2.44,22.08,7.31,5.04,4.87,7.57,11.99,7.57,21.35s-2.65,17.04-7.93,22.22c-5.29,5.17-12.83,7.76-22.62,7.76h-22.17ZM91.32,130.17c9.31,0,13.96-5.39,13.96-16.18,0-5.36-1.08-9.35-3.25-11.95-2.16-2.6-5.46-3.9-9.89-3.9h-7.47v32.03h6.65Z"/>
        <path class="cls-1" d="M160.22,143.47l-21.1-33.59v33.59h-14.94v-58.63h13.79l21.1,33.58v-33.58h14.95v58.63h-13.8Z"/>
        <path class="cls-1" d="M230.59,122.04c-.43,7.17-2.95,12.78-7.55,16.84-4.6,4.05-10.76,6.07-18.48,6.07-8.87,0-15.75-2.67-20.65-8.01-4.9-5.34-7.35-12.82-7.35-22.46s2.51-17.37,7.51-22.87c5.01-5.5,11.98-8.25,20.9-8.25,7,0,12.59,1.74,16.75,5.22,4.16,3.48,6.82,8.64,7.97,15.48l-15.68,1.8c-.65-3.17-1.74-5.46-3.24-6.86-1.5-1.4-3.6-2.09-6.28-2.09-7.5,0-11.25,5.72-11.25,17.16s3.81,17.32,11.41,17.32c2.85,0,5.09-.79,6.74-2.38,1.64-1.58,2.68-3.92,3.12-6.98h16.09Z"/>
      </g>
      <g>
        <rect x="25.41" y="84.84" width="31.42" height="58.63"/>
        <path class="cls-4" d="M48.01,139.82c-2.6-2.12-4.9-4.28-6.89-6.47-1.99,2.2-4.29,4.36-6.89,6.47l-1.71-2.1c2.59-2.11,4.87-4.26,6.82-6.45-4.92-6.07-7.56-12.43-7.88-18.99-.63-13.16,8.32-22.17,8.71-22.55l.95-.94.95.94c.38.38,9.34,9.39,8.71,22.55-.32,6.56-2.96,12.92-7.88,18.99,1.95,2.18,4.22,4.33,6.82,6.45l-1.71,2.1ZM41.12,92.73c-2.2,2.64-7.42,9.97-6.95,19.46.29,5.81,2.62,11.49,6.95,16.97,4.34-5.49,6.67-11.18,6.95-17,.46-9.5-4.75-16.79-6.95-19.43Z"/>
      </g>
    </g>
    <g>
      <path class="cls-1" d="M26.18,170.09c0,.36.07.63.2.81.14.18.36.27.66.27s.54-.09.67-.27c.13-.18.2-.45.2-.81v-2.47h.76v2.45c0,.61-.14,1.05-.42,1.33-.28.28-.69.43-1.21.43s-.93-.14-1.21-.43c-.28-.29-.42-.74-.42-1.35v-2.43h.77v2.47Z"/>
      <path class="cls-1" d="M29.47,167.63h.71l1.85,2.9v-2.9h.73v4.11h-.69l-1.86-2.89v2.89h-.73v-4.11Z"/>
      <path class="cls-1" d="M33.6,167.63h.77v4.11h-.77v-4.11Z"/>
      <path class="cls-1" d="M35.21,167.63h2.66v.64h-1.9v1.14h1.78v.65h-1.78v1.68h-.76v-4.11Z"/>
      <path class="cls-1" d="M38.62,168.52c.16-.32.39-.57.68-.74s.63-.25,1.02-.25.74.08,1.03.25c.29.17.51.41.67.73.16.32.24.71.24,1.16s-.08.85-.24,1.18c-.16.32-.38.57-.68.74-.29.17-.64.26-1.04.26s-.73-.08-1.02-.25c-.29-.17-.52-.41-.68-.73-.16-.32-.24-.71-.24-1.17s.08-.85.24-1.18ZM40.32,168.19c-.38,0-.67.13-.86.4-.19.27-.29.63-.29,1.09s.09.83.29,1.1c.19.27.48.4.86.4s.66-.13.85-.4c.19-.27.29-.63.29-1.1s-.1-.82-.29-1.09-.48-.4-.85-.4Z"/>
      <path class="cls-1" d="M42.98,167.63h1.47c.4,0,.71.06.94.17.23.11.39.26.48.44.1.18.14.39.14.61,0,.26-.05.49-.16.68-.11.19-.28.34-.51.45l.86,1.76h-.82l-.74-1.59s-.08,0-.12,0c-.04,0-.08,0-.11,0h-.69v1.58h-.74v-4.11ZM44.45,169.54c.31,0,.53-.06.64-.18s.17-.28.17-.49-.06-.36-.18-.47c-.12-.11-.34-.16-.67-.16h-.69v1.3h.74Z"/>
      <path class="cls-1" d="M46.74,167.63h.91l1.15,3.2,1.17-3.2h.89v4.11h-.7v-2.94l-1.08,2.94h-.58l-1.06-2.92v2.92h-.7v-4.11Z"/>
      <path class="cls-1" d="M51.7,167.63h2.78v.63h-2.02v1.05h1.9v.64h-1.9v1.15h2.13l-.09.63h-2.8v-4.11Z"/>
      <path class="cls-1" d="M57.9,171.49c-.27.23-.67.35-1.2.35s-.92-.11-1.22-.32c-.3-.21-.47-.55-.51-1.01h.77c.04.25.14.43.29.54.16.11.39.17.7.17s.51-.06.62-.18c.12-.12.18-.26.18-.43,0-.13-.04-.25-.12-.36-.08-.1-.25-.18-.51-.22l-.53-.1c-.42-.08-.75-.2-.97-.38s-.33-.45-.33-.83c0-.26.07-.48.2-.66.14-.18.32-.31.56-.4.24-.09.51-.14.82-.14.36,0,.64.05.87.15s.39.24.5.41c.11.17.19.36.22.57l-.73.1c-.05-.21-.14-.36-.26-.46-.12-.1-.32-.15-.6-.15-.3,0-.52.05-.64.16-.12.1-.18.23-.18.39s.05.28.14.37c.09.08.26.15.5.19l.57.11c.44.08.77.22.97.41.2.19.31.47.31.82s-.14.66-.41.9Z"/>
      <path class="cls-1" d="M60.23,167.63h1.44c.4,0,.71.05.94.16.23.11.39.26.49.45s.14.41.14.66-.05.49-.15.69-.26.36-.49.48-.54.17-.93.17h-.7v1.48h-.75v-4.11ZM61.68,169.63c.22,0,.39-.03.52-.08.12-.05.21-.14.26-.24.05-.11.07-.23.07-.38,0-.23-.06-.4-.18-.51s-.34-.17-.67-.17h-.69v1.38h.7Z"/>
      <path class="cls-1" d="M63.9,167.63h1.47c.4,0,.71.06.94.17.23.11.39.26.48.44.1.18.14.39.14.61,0,.26-.05.49-.16.68-.11.19-.28.34-.51.45l.86,1.76h-.82l-.74-1.59s-.08,0-.12,0c-.04,0-.08,0-.11,0h-.69v1.58h-.74v-4.11ZM65.38,169.54c.31,0,.53-.06.64-.18s.17-.28.17-.49-.06-.36-.18-.47c-.12-.11-.34-.16-.67-.16h-.69v1.3h.74Z"/>
      <path class="cls-1" d="M67.72,168.52c.16-.32.39-.57.68-.74s.63-.25,1.02-.25.74.08,1.03.25c.29.17.51.41.67.73.16.32.24.71.24,1.16s-.08.85-.24,1.18c-.16.32-.38.57-.68.74-.29.17-.64.26-1.04.26s-.73-.08-1.02-.25c-.29-.17-.52-.41-.68-.73-.16-.32-.24-.71-.24-1.17s.08-.85.24-1.18ZM69.41,168.19c-.38,0-.67.13-.86.4-.19.27-.29.63-.29,1.09s.09.83.29,1.1c.19.27.48.4.86.4s.66-.13.85-.4c.19-.27.29-.63.29-1.1s-.1-.82-.29-1.09-.48-.4-.85-.4Z"/>
      <path class="cls-1" d="M72.07,167.63h2.66v.64h-1.9v1.14h1.78v.65h-1.78v1.68h-.76v-4.11Z"/>
      <path class="cls-1" d="M75.37,167.63h.77v4.11h-.77v-4.11Z"/>
      <path class="cls-1" d="M79.69,171.49c-.27.23-.67.35-1.2.35s-.92-.11-1.22-.32c-.3-.21-.47-.55-.51-1.01h.77c.04.25.14.43.29.54.16.11.39.17.7.17s.51-.06.62-.18c.12-.12.18-.26.18-.43,0-.13-.04-.25-.12-.36-.08-.1-.25-.18-.51-.22l-.53-.1c-.42-.08-.75-.2-.97-.38s-.33-.45-.33-.83c0-.26.07-.48.2-.66.14-.18.32-.31.56-.4.24-.09.51-.14.82-.14.36,0,.64.05.87.15s.39.24.5.41c.11.17.19.36.22.57l-.73.1c-.05-.21-.14-.36-.26-.46-.12-.1-.32-.15-.6-.15-.3,0-.52.05-.64.16-.12.1-.18.23-.18.39s.05.28.14.37c.09.08.26.15.5.19l.57.11c.44.08.77.22.97.41.2.19.31.47.31.82s-.14.66-.41.9Z"/>
      <path class="cls-1" d="M83.48,171.49c-.27.23-.67.35-1.2.35s-.92-.11-1.22-.32c-.3-.21-.47-.55-.51-1.01h.77c.04.25.14.43.29.54.16.11.39.17.7.17s.51-.06.62-.18c.12-.12.18-.26.18-.43,0-.13-.04-.25-.12-.36-.08-.1-.25-.18-.51-.22l-.53-.1c-.42-.08-.75-.2-.97-.38s-.33-.45-.33-.83c0-.26.07-.48.2-.66.14-.18.32-.31.56-.4.24-.09.51-.14.82-.14.36,0,.64.05.87.15s.39.24.5.41c.11.17.19.36.22.57l-.73.1c-.05-.21-.14-.36-.26-.46-.12-.1-.32-.15-.6-.15-.3,0-.52.05-.64.16-.12.1-.18.23-.18.39s.05.28.14.37c.09.08.26.15.5.19l.57.11c.44.08.77.22.97.41.2.19.31.47.31.82s-.14.66-.41.9Z"/>
      <path class="cls-1" d="M84.55,167.63h.77v4.11h-.77v-4.11Z"/>
      <path class="cls-1" d="M86.27,168.52c.16-.32.39-.57.68-.74s.63-.25,1.02-.25.74.08,1.03.25c.29.17.51.41.67.73.16.32.24.71.24,1.16s-.08.85-.24,1.18c-.16.32-.38.57-.68.74-.29.17-.64.26-1.04.26s-.73-.08-1.02-.25c-.29-.17-.52-.41-.68-.73-.16-.32-.24-.71-.24-1.17s.08-.85.24-1.18ZM87.97,168.19c-.38,0-.67.13-.86.4-.19.27-.29.63-.29,1.09s.09.83.29,1.1c.19.27.48.4.86.4s.66-.13.85-.4c.19-.27.29-.63.29-1.1s-.1-.82-.29-1.09-.48-.4-.85-.4Z"/>
      <path class="cls-1" d="M90.62,167.63h.71l1.85,2.9v-2.9h.73v4.11h-.69l-1.86-2.89v2.89h-.73v-4.11Z"/>
      <path class="cls-1" d="M95.93,167.63h.88l1.51,4.11h-.8l-.36-1h-1.62l-.35,1h-.78l1.52-4.11ZM96.96,170.11l-.61-1.77-.61,1.77h1.22Z"/>
      <path class="cls-1" d="M98.82,167.63h.77v4.11h-.77v-4.11Z"/>
      <path class="cls-1" d="M103.14,171.49c-.27.23-.67.35-1.2.35s-.92-.11-1.22-.32c-.3-.21-.47-.55-.51-1.01h.77c.04.25.14.43.29.54.16.11.39.17.7.17s.51-.06.62-.18c.12-.12.18-.26.18-.43,0-.13-.04-.25-.12-.36-.08-.1-.25-.18-.51-.22l-.53-.1c-.42-.08-.75-.2-.97-.38s-.33-.45-.33-.83c0-.26.07-.48.2-.66.14-.18.32-.31.56-.4.24-.09.51-.14.82-.14.36,0,.64.05.87.15s.39.24.5.41c.11.17.19.36.22.57l-.73.1c-.05-.21-.14-.36-.26-.46-.12-.1-.32-.15-.6-.15-.3,0-.52.05-.64.16-.12.1-.18.23-.18.39s.05.28.14.37c.09.08.26.15.5.19l.57.11c.44.08.77.22.97.41.2.19.31.47.31.82s-.14.66-.41.9Z"/>
      <path class="cls-1" d="M105.47,167.63h2.78v.63h-2.02v1.05h1.9v.64h-1.9v1.15h2.13l-.09.63h-2.8v-4.11Z"/>
      <path class="cls-1" d="M110.22,167.63h2.78v.63h-2.02v1.05h1.9v.64h-1.9v1.15h2.13l-.09.63h-2.8v-4.11Z"/>
      <path class="cls-1" d="M113.82,168.52c.16-.32.39-.57.68-.74s.63-.25,1.02-.25.74.08,1.03.25c.29.17.51.41.67.72.16.32.24.7.24,1.16,0,.35-.05.67-.14.94-.09.27-.23.5-.41.68l.49.59-.44.37-.51-.62c-.27.14-.59.21-.95.21-.39,0-.73-.08-1.02-.25-.29-.17-.51-.41-.67-.73-.16-.32-.24-.71-.24-1.17s.08-.85.24-1.18ZM116.6,170.24c.04-.17.06-.36.06-.56,0-.46-.1-.83-.29-1.1s-.48-.41-.86-.41-.67.14-.87.41c-.19.27-.29.64-.29,1.1s.1.83.29,1.1c.19.27.48.4.87.4.19,0,.36-.04.5-.11l-.49-.6.43-.36.47.58c.08-.13.14-.28.18-.45Z"/>
      <path class="cls-1" d="M118.9,170.09c0,.36.07.63.2.81.14.18.36.27.66.27s.54-.09.67-.27c.13-.18.2-.45.2-.81v-2.47h.76v2.45c0,.61-.14,1.05-.42,1.33-.28.28-.69.43-1.21.43s-.93-.14-1.21-.43c-.28-.29-.42-.74-.42-1.35v-2.43h.77v2.47Z"/>
      <path class="cls-1" d="M122.19,167.63h.77v4.11h-.77v-4.11Z"/>
      <path class="cls-1" d="M123.8,167.63h1.44c.4,0,.71.05.94.16.23.11.39.26.49.45s.14.41.14.66-.05.49-.15.69-.26.36-.49.48-.54.17-.93.17h-.7v1.48h-.75v-4.11ZM125.24,169.63c.22,0,.39-.03.52-.08.12-.05.21-.14.26-.24.05-.11.07-.23.07-.38,0-.23-.06-.4-.18-.51s-.34-.17-.67-.17h-.69v1.38h.7Z"/>
      <path class="cls-1" d="M128.16,167.63h.88l1.51,4.11h-.8l-.36-1h-1.62l-.35,1h-.78l1.52-4.11ZM129.19,170.11l-.61-1.77-.61,1.77h1.22Z"/>
      <path class="cls-1" d="M131.04,167.63h.91l1.15,3.2,1.17-3.2h.89v4.11h-.7v-2.94l-1.08,2.94h-.58l-1.06-2.92v2.92h-.7v-4.11Z"/>
      <path class="cls-1" d="M136.01,167.63h2.78v.63h-2.02v1.05h1.9v.64h-1.9v1.15h2.13l-.09.63h-2.8v-4.11Z"/>
      <path class="cls-1" d="M139.5,167.63h.71l1.85,2.9v-2.9h.73v4.11h-.69l-1.86-2.89v2.89h-.73v-4.11Z"/>
      <path class="cls-1" d="M144.61,168.3h-1.29v-.67h3.36v.67h-1.3v3.43h-.76v-3.43Z"/>
      <path class="cls-1" d="M147.13,168.52c.16-.32.39-.57.68-.74s.63-.25,1.02-.25.74.08,1.03.25c.29.17.51.41.67.73.16.32.24.71.24,1.16s-.08.85-.24,1.18c-.16.32-.38.57-.68.74-.29.17-.64.26-1.04.26s-.73-.08-1.02-.25c-.29-.17-.52-.41-.68-.73-.16-.32-.24-.71-.24-1.17s.08-.85.24-1.18ZM148.83,168.19c-.38,0-.67.13-.86.4-.19.27-.29.63-.29,1.09s.09.83.29,1.1c.19.27.48.4.86.4s.66-.13.85-.4c.19-.27.29-.63.29-1.1s-.1-.82-.29-1.09-.48-.4-.85-.4Z"/>
      <path class="cls-1" d="M154.19,171.49c-.27.23-.67.35-1.2.35s-.92-.11-1.22-.32c-.3-.21-.47-.55-.51-1.01h.77c.04.25.14.43.29.54.16.11.39.17.7.17s.51-.06.62-.18c.12-.12.18-.26.18-.43,0-.13-.04-.25-.12-.36-.08-.1-.25-.18-.51-.22l-.53-.1c-.42-.08-.75-.2-.97-.38s-.33-.45-.33-.83c0-.26.07-.48.2-.66.14-.18.32-.31.56-.4.24-.09.51-.14.82-.14.36,0,.64.05.87.15s.39.24.5.41c.11.17.19.36.22.57l-.73.1c-.05-.21-.14-.36-.26-.46-.12-.1-.32-.15-.6-.15-.3,0-.52.05-.64.16-.12.1-.18.23-.18.39s.05.28.14.37c.09.08.26.15.5.19l.57.11c.44.08.77.22.97.41.2.19.31.47.31.82s-.14.66-.41.9Z"/>
      <path class="cls-1" d="M156.52,167.63h1.51c.63,0,1.12.17,1.46.51.35.34.52.84.52,1.52s-.18,1.2-.55,1.55c-.37.35-.87.53-1.53.53h-1.42v-4.11ZM157.98,171.08c.43,0,.75-.12.95-.37.2-.25.3-.59.3-1.05s-.09-.79-.28-1.03-.49-.36-.9-.36h-.77v2.8h.7Z"/>
      <path class="cls-1" d="M160.72,167.63h2.78v.63h-2.02v1.05h1.9v.64h-1.9v1.15h2.13l-.09.63h-2.8v-4.11Z"/>
      <path class="cls-1" d="M165.47,167.63h1.44c.4,0,.71.05.94.16.23.11.39.26.49.45s.14.41.14.66-.05.49-.15.69-.26.36-.49.48-.54.17-.93.17h-.7v1.48h-.75v-4.11ZM166.91,169.63c.22,0,.39-.03.52-.08.12-.05.21-.14.26-.24.05-.11.07-.23.07-.38,0-.23-.06-.4-.18-.51s-.34-.17-.67-.17h-.69v1.38h.7Z"/>
      <path class="cls-1" d="M169.14,167.63h1.47c.4,0,.71.06.94.17.23.11.39.26.48.44.1.18.14.39.14.61,0,.26-.05.49-.16.68-.11.19-.28.34-.51.45l.86,1.76h-.82l-.74-1.59s-.08,0-.12,0c-.04,0-.08,0-.11,0h-.69v1.58h-.74v-4.11ZM170.62,169.54c.31,0,.53-.06.64-.18s.17-.28.17-.49-.06-.36-.18-.47c-.12-.11-.34-.16-.67-.16h-.69v1.3h.74Z"/>
      <path class="cls-1" d="M172.95,168.52c.16-.32.39-.57.68-.74s.63-.25,1.02-.25.74.08,1.03.25c.29.17.51.41.67.73.16.32.24.71.24,1.16s-.08.85-.24,1.18c-.16.32-.38.57-.68.74-.29.17-.64.26-1.04.26s-.73-.08-1.02-.25c-.29-.17-.52-.41-.68-.73-.16-.32-.24-.71-.24-1.17s.08-.85.24-1.18ZM174.65,168.19c-.38,0-.67.13-.86.4-.19.27-.29.63-.29,1.09s.09.83.29,1.1c.19.27.48.4.86.4s.66-.13.85-.4c.19-.27.29-.63.29-1.1s-.1-.82-.29-1.09-.48-.4-.85-.4Z"/>
      <path class="cls-1" d="M178.1,168.3h-1.29v-.67h3.36v.67h-1.3v3.43h-.76v-3.43Z"/>
      <path class="cls-1" d="M180.7,167.63h2.78v.63h-2.02v1.05h1.9v.64h-1.9v1.15h2.13l-.09.63h-2.8v-4.11Z"/>
      <path class="cls-1" d="M184.29,168.52c.16-.32.38-.57.67-.74.28-.17.61-.26.99-.26.34,0,.62.06.85.17.23.11.41.27.54.48.13.21.22.45.28.74l-.75.1c-.06-.26-.16-.46-.3-.61-.14-.15-.35-.22-.63-.22-.35,0-.62.13-.8.4-.19.27-.28.63-.28,1.09s.09.83.28,1.1c.19.27.46.4.81.4.31,0,.54-.08.68-.24.14-.16.23-.37.27-.62h.78c-.03.3-.11.56-.25.79s-.33.41-.58.54-.55.19-.91.19c-.39,0-.73-.08-1.01-.25-.28-.17-.5-.41-.65-.73-.15-.32-.23-.7-.23-1.16s.08-.86.24-1.18ZM185.74,171.7l.4.02-.12.3c.21.03.36.08.44.17.08.09.12.19.12.32,0,.18-.07.31-.21.39-.14.08-.34.12-.59.12-.12,0-.26-.01-.41-.03v-.37c.08,0,.14.01.2.02s.11,0,.17,0c.11,0,.18-.02.23-.05.05-.03.07-.08.07-.13,0-.06-.03-.11-.08-.13-.05-.03-.15-.04-.3-.04h-.15l.22-.59Z"/>
      <path class="cls-1" d="M189.38,167.63h.88l1.51,4.11h-.8l-.36-1h-1.62l-.35,1h-.78l1.52-4.11ZM189.36,166.45c.1,0,.19.02.27.05.08.03.17.09.28.18.08.06.14.1.18.13s.08.04.12.04c.12,0,.17-.13.17-.38h.47c0,.56-.19.83-.58.83-.1,0-.19-.02-.27-.05-.08-.03-.17-.09-.28-.18-.08-.06-.14-.11-.18-.13-.04-.02-.08-.04-.12-.04-.12,0-.17.13-.17.38h-.47c0-.56.19-.83.58-.83ZM190.42,170.11l-.61-1.77-.61,1.77h1.22Z"/>
      <path class="cls-1" d="M192.11,168.52c.16-.32.39-.57.68-.74s.63-.25,1.02-.25.74.08,1.03.25c.29.17.51.41.67.73.16.32.24.71.24,1.16s-.08.85-.24,1.18c-.16.32-.38.57-.68.74-.29.17-.64.26-1.04.26s-.73-.08-1.02-.25c-.29-.17-.52-.41-.68-.73-.16-.32-.24-.71-.24-1.17s.08-.85.24-1.18ZM193.81,168.19c-.38,0-.67.13-.86.4-.19.27-.29.63-.29,1.09s.09.83.29,1.1c.19.27.48.4.86.4s.66-.13.85-.4c.19-.27.29-.63.29-1.1s-.1-.82-.29-1.09-.48-.4-.85-.4Z"/>
      <path class="cls-1" d="M197.72,167.63h.77v4.11h-.77v-4.11Z"/>
      <path class="cls-1" d="M199.33,167.63h.71l1.85,2.9v-2.9h.73v4.11h-.69l-1.86-2.89v2.89h-.73v-4.11Z"/>
      <path class="cls-1" d="M203.46,167.63h1.51c.63,0,1.12.17,1.46.51.35.34.52.84.52,1.52s-.18,1.2-.55,1.55c-.37.35-.87.53-1.53.53h-1.42v-4.11ZM204.91,171.08c.43,0,.75-.12.95-.37.2-.25.3-.59.3-1.05s-.09-.79-.28-1.03-.49-.36-.9-.36h-.77v2.8h.7Z"/>
      <path class="cls-1" d="M207.65,167.63h.77v4.11h-.77v-4.11Z"/>
      <path class="cls-1" d="M208.93,167.63h.84l1.08,3.26,1.09-3.26h.82l-1.48,4.11h-.87l-1.47-4.11Z"/>
      <path class="cls-1" d="M213.25,167.63h.77v4.11h-.77v-4.11Z"/>
      <path class="cls-1" d="M214.86,167.63h1.51c.63,0,1.12.17,1.46.51.35.34.52.84.52,1.52s-.18,1.2-.55,1.55c-.37.35-.87.53-1.53.53h-1.42v-4.11ZM216.32,171.08c.43,0,.75-.12.95-.37.2-.25.3-.59.3-1.05s-.09-.79-.28-1.03-.49-.36-.9-.36h-.77v2.8h.7Z"/>
      <path class="cls-1" d="M219.79,170.09c0,.36.07.63.2.81.14.18.36.27.66.27s.54-.09.67-.27c.13-.18.2-.45.2-.81v-2.47h.76v2.45c0,.61-.14,1.05-.42,1.33-.28.28-.69.43-1.21.43s-.93-.14-1.21-.43c-.28-.29-.42-.74-.42-1.35v-2.43h.77v2.47Z"/>
      <path class="cls-1" d="M224.07,167.63h.88l1.51,4.11h-.8l-.36-1h-1.62l-.35,1h-.78l1.52-4.11ZM225.1,170.11l-.61-1.77-.61,1.77h1.22Z"/>
      <path class="cls-1" d="M226.96,167.63h.77v3.43h2l-.09.67h-2.68v-4.11Z"/>
    </g>
    <line class="cls-2" x1="25.41" y1="155.55" x2="229.73" y2="155.55"/>
  </g>
</svg>