<?xml version="1.0" encoding="UTF-8"?>
<svg id="Layer_1" data-name="Layer 1" xmlns="http://www.w3.org/2000/svg" viewBox="0 0 192 192">
  <defs>
    <style>
      .cls-1 {
        fill: #fff;
      }

      .cls-2 {
        fill: #0060c6;
      }

      .cls-3 {
        fill: none;
        stroke: #fff;
        stroke-miterlimit: 10;
        stroke-width: .53px;
      }

      .cls-4 {
        fill: #ff0;
      }
    </style>
  </defs>
  <rect class="cls-2" width="192" height="192"/>
  <g>
    <g>
      <g>
        <path class="cls-1" d="M51.68,107.6v-43.97h17.31c7.27,0,12.79,1.83,16.56,5.48,3.78,3.65,5.68,8.99,5.68,16.01s-1.99,12.78-5.95,16.66c-3.97,3.88-9.62,5.82-16.97,5.82h-16.63ZM68.49,97.63c6.98,0,10.47-4.04,10.47-12.13,0-4.02-.81-7.01-2.44-8.96-1.62-1.95-4.09-2.92-7.42-2.92h-5.6v24.02h4.99Z"/>
        <path class="cls-1" d="M120.16,107.6l-15.83-25.19v25.19h-11.21v-43.97h10.34l15.83,25.19v-25.19h11.21v43.97h-10.35Z"/>
        <path class="cls-1" d="M172.94,91.53c-.33,5.38-2.22,9.59-5.66,12.63-3.45,3.04-8.07,4.56-13.86,4.56-6.65,0-11.81-2-15.49-6-3.68-4-5.51-9.62-5.51-16.85s1.88-13.03,5.63-17.15c3.76-4.12,8.98-6.19,15.68-6.19,5.25,0,9.44,1.31,12.56,3.91,3.12,2.61,5.11,6.48,5.97,11.61l-11.76,1.35c-.49-2.38-1.3-4.09-2.43-5.14-1.13-1.05-2.7-1.57-4.71-1.57-5.63,0-8.44,4.29-8.44,12.87s2.86,12.99,8.56,12.99c2.14,0,3.82-.59,5.05-1.78,1.23-1.19,2.01-2.94,2.34-5.23h12.07Z"/>
      </g>
      <g>
        <rect x="19.06" y="63.63" width="23.57" height="43.97"/>
        <path class="cls-4" d="M36.01,104.87c-1.95-1.59-3.67-3.21-5.17-4.86-1.49,1.65-3.22,3.27-5.17,4.86l-1.28-1.58c1.95-1.58,3.65-3.2,5.11-4.83-3.69-4.55-5.67-9.32-5.91-14.24-.48-9.87,6.24-16.63,6.53-16.91l.71-.71.71.71c.29.28,7.01,7.05,6.53,16.91-.24,4.92-2.22,9.69-5.91,14.24,1.46,1.64,3.17,3.25,5.11,4.84l-1.28,1.58ZM30.84,69.55c-1.65,1.98-5.57,7.47-5.21,14.59.22,4.36,1.96,8.62,5.21,12.73,3.25-4.12,5-8.38,5.21-12.75.34-7.13-3.56-12.59-5.21-14.57Z"/>
      </g>
    </g>
    <g>
      <path class="cls-1" d="M19.63,127.57c0,.27.05.47.15.61.1.14.27.2.49.2s.4-.07.5-.2c.1-.13.15-.34.15-.61v-1.85h.57v1.84c0,.45-.11.79-.32,1-.21.21-.52.32-.91.32s-.7-.11-.91-.32c-.21-.21-.32-.55-.32-1.01v-1.82h.58v1.85Z"/>
      <path class="cls-1" d="M22.1,125.72h.53l1.39,2.18v-2.18h.54v3.08h-.52l-1.4-2.16v2.16h-.55v-3.08Z"/>
      <path class="cls-1" d="M25.2,125.72h.58v3.08h-.58v-3.08Z"/>
      <path class="cls-1" d="M26.41,125.72h2v.48h-1.43v.85h1.34v.49h-1.34v1.26h-.57v-3.08Z"/>
      <path class="cls-1" d="M28.97,126.39c.12-.24.29-.43.51-.55s.47-.19.77-.19.55.06.77.19c.22.12.39.31.51.55.12.24.18.53.18.87s-.06.64-.18.88c-.12.24-.29.43-.51.56-.22.13-.48.19-.78.19s-.55-.06-.77-.19c-.22-.13-.39-.31-.51-.55-.12-.24-.18-.53-.18-.88s.06-.64.18-.88ZM30.24,126.14c-.29,0-.5.1-.65.3-.14.2-.22.47-.22.82s.07.62.22.82c.14.2.36.3.65.3s.5-.1.64-.3c.14-.2.22-.47.22-.82s-.07-.62-.22-.82-.36-.3-.64-.3Z"/>
      <path class="cls-1" d="M32.23,125.72h1.1c.3,0,.53.04.7.13.17.08.29.19.36.33.07.14.11.29.11.46,0,.2-.04.36-.12.51-.08.14-.21.26-.39.34l.65,1.32h-.61l-.56-1.19s-.06,0-.09,0c-.03,0-.06,0-.08,0h-.52v1.19h-.56v-3.08ZM33.34,127.16c.24,0,.4-.04.48-.13s.13-.21.13-.37-.05-.27-.13-.35c-.09-.08-.26-.12-.51-.12h-.52v.98h.55Z"/>
      <path class="cls-1" d="M35.05,125.72h.68l.86,2.4.88-2.4h.67v3.08h-.53v-2.21l-.81,2.21h-.44l-.8-2.19v2.19h-.52v-3.08Z"/>
      <path class="cls-1" d="M38.77,125.72h2.08v.47h-1.51v.79h1.43v.48h-1.43v.86h1.6l-.07.47h-2.1v-3.08Z"/>
      <path class="cls-1" d="M43.43,128.61c-.2.18-.5.26-.9.26s-.69-.08-.91-.24c-.23-.16-.36-.41-.38-.75h.57c.03.18.1.32.22.4.12.09.29.13.52.13s.38-.04.47-.13c.09-.09.13-.2.13-.33,0-.1-.03-.19-.09-.27-.06-.08-.19-.13-.38-.17l-.4-.07c-.32-.06-.56-.15-.73-.29s-.25-.34-.25-.62c0-.2.05-.36.15-.5.1-.13.24-.23.42-.3.18-.07.38-.1.62-.1.27,0,.48.04.65.11s.29.18.38.3c.08.13.14.27.17.43l-.55.08c-.04-.16-.11-.27-.2-.35-.09-.08-.24-.12-.45-.12-.23,0-.39.04-.48.12-.09.08-.14.17-.14.29s.03.21.1.28c.07.06.19.11.38.14l.43.08c.33.06.58.17.73.31.15.14.23.35.23.62s-.1.5-.3.67Z"/>
      <path class="cls-1" d="M45.17,125.72h1.08c.3,0,.53.04.7.12.17.08.29.2.36.34s.11.31.11.5-.04.37-.11.52-.2.27-.37.36-.4.13-.7.13h-.52v1.11h-.56v-3.08ZM46.26,127.22c.17,0,.3-.02.39-.06.09-.04.16-.1.19-.18.03-.08.05-.17.05-.28,0-.17-.04-.3-.13-.38s-.26-.13-.51-.13h-.52v1.04h.52Z"/>
      <path class="cls-1" d="M47.93,125.72h1.1c.3,0,.53.04.7.13.17.08.29.19.36.33.07.14.11.29.11.46,0,.2-.04.36-.12.51-.08.14-.21.26-.39.34l.65,1.32h-.61l-.56-1.19s-.06,0-.09,0c-.03,0-.06,0-.08,0h-.52v1.19h-.56v-3.08ZM49.03,127.16c.24,0,.4-.04.48-.13s.13-.21.13-.37-.05-.27-.13-.35c-.09-.08-.26-.12-.51-.12h-.52v.98h.55Z"/>
      <path class="cls-1" d="M50.79,126.39c.12-.24.29-.43.51-.55s.47-.19.77-.19.55.06.77.19c.22.12.39.31.51.55.12.24.18.53.18.87s-.06.64-.18.88c-.12.24-.29.43-.51.56-.22.13-.48.19-.78.19s-.55-.06-.77-.19c-.22-.13-.39-.31-.51-.55-.12-.24-.18-.53-.18-.88s.06-.64.18-.88ZM52.06,126.14c-.29,0-.5.1-.65.3-.14.2-.22.47-.22.82s.07.62.22.82c.14.2.36.3.65.3s.5-.1.64-.3c.14-.2.22-.47.22-.82s-.07-.62-.22-.82-.36-.3-.64-.3Z"/>
      <path class="cls-1" d="M54.05,125.72h2v.48h-1.43v.85h1.34v.49h-1.34v1.26h-.57v-3.08Z"/>
      <path class="cls-1" d="M56.53,125.72h.58v3.08h-.58v-3.08Z"/>
      <path class="cls-1" d="M59.77,128.61c-.2.18-.5.26-.9.26s-.69-.08-.91-.24c-.23-.16-.36-.41-.38-.75h.57c.03.18.1.32.22.4.12.09.29.13.52.13s.38-.04.47-.13c.09-.09.13-.2.13-.33,0-.1-.03-.19-.09-.27-.06-.08-.19-.13-.38-.17l-.4-.07c-.32-.06-.56-.15-.73-.29s-.25-.34-.25-.62c0-.2.05-.36.15-.5.1-.13.24-.23.42-.3.18-.07.38-.1.62-.1.27,0,.48.04.65.11s.29.18.38.3c.08.13.14.27.17.43l-.55.08c-.04-.16-.11-.27-.2-.35-.09-.08-.24-.12-.45-.12-.23,0-.39.04-.48.12-.09.08-.14.17-.14.29s.03.21.1.28c.07.06.19.11.38.14l.43.08c.33.06.58.17.73.31.15.14.23.35.23.62s-.1.5-.3.67Z"/>
      <path class="cls-1" d="M62.61,128.61c-.2.18-.5.26-.9.26s-.69-.08-.91-.24c-.23-.16-.36-.41-.38-.75h.57c.03.18.1.32.22.4.12.09.29.13.52.13s.38-.04.47-.13c.09-.09.13-.2.13-.33,0-.1-.03-.19-.09-.27-.06-.08-.19-.13-.38-.17l-.4-.07c-.32-.06-.56-.15-.73-.29s-.25-.34-.25-.62c0-.2.05-.36.15-.5.1-.13.24-.23.42-.3.18-.07.38-.1.62-.1.27,0,.48.04.65.11s.29.18.38.3c.08.13.14.27.17.43l-.55.08c-.04-.16-.11-.27-.2-.35-.09-.08-.24-.12-.45-.12-.23,0-.39.04-.48.12-.09.08-.14.17-.14.29s.03.21.1.28c.07.06.19.11.38.14l.43.08c.33.06.58.17.73.31.15.14.23.35.23.62s-.1.5-.3.67Z"/>
      <path class="cls-1" d="M63.41,125.72h.58v3.08h-.58v-3.08Z"/>
      <path class="cls-1" d="M64.7,126.39c.12-.24.29-.43.51-.55s.47-.19.77-.19.55.06.77.19c.22.12.39.31.51.55.12.24.18.53.18.87s-.06.64-.18.88c-.12.24-.29.43-.51.56-.22.13-.48.19-.78.19s-.55-.06-.77-.19c-.22-.13-.39-.31-.51-.55-.12-.24-.18-.53-.18-.88s.06-.64.18-.88ZM65.98,126.14c-.29,0-.5.1-.65.3-.14.2-.22.47-.22.82s.07.62.22.82c.14.2.36.3.65.3s.5-.1.64-.3c.14-.2.22-.47.22-.82s-.07-.62-.22-.82-.36-.3-.64-.3Z"/>
      <path class="cls-1" d="M67.97,125.72h.53l1.39,2.18v-2.18h.54v3.08h-.52l-1.4-2.16v2.16h-.55v-3.08Z"/>
      <path class="cls-1" d="M71.95,125.72h.66l1.13,3.08h-.6l-.27-.75h-1.22l-.26.75h-.58l1.14-3.08ZM72.72,127.58l-.46-1.32-.46,1.32h.92Z"/>
      <path class="cls-1" d="M74.11,125.72h.58v3.08h-.58v-3.08Z"/>
      <path class="cls-1" d="M77.35,128.61c-.2.18-.5.26-.9.26s-.69-.08-.91-.24c-.23-.16-.36-.41-.38-.75h.57c.03.18.1.32.22.4.12.09.29.13.52.13s.38-.04.47-.13c.09-.09.13-.2.13-.33,0-.1-.03-.19-.09-.27-.06-.08-.19-.13-.38-.17l-.4-.07c-.32-.06-.56-.15-.73-.29s-.25-.34-.25-.62c0-.2.05-.36.15-.5.1-.13.24-.23.42-.3.18-.07.38-.1.62-.1.27,0,.48.04.65.11s.29.18.38.3c.08.13.14.27.17.43l-.55.08c-.04-.16-.11-.27-.2-.35-.09-.08-.24-.12-.45-.12-.23,0-.39.04-.48.12-.09.08-.14.17-.14.29s.03.21.1.28c.07.06.19.11.38.14l.43.08c.33.06.58.17.73.31.15.14.23.35.23.62s-.1.5-.3.67Z"/>
      <path class="cls-1" d="M79.1,125.72h2.08v.47h-1.51v.79h1.43v.48h-1.43v.86h1.6l-.07.47h-2.1v-3.08Z"/>
      <path class="cls-1" d="M82.66,125.72h2.08v.47h-1.51v.79h1.43v.48h-1.43v.86h1.6l-.07.47h-2.1v-3.08Z"/>
      <path class="cls-1" d="M85.36,126.39c.12-.24.29-.43.51-.55s.47-.19.77-.19.55.06.77.19c.22.12.39.31.51.54.12.24.18.53.18.87,0,.26-.03.5-.11.7-.07.2-.17.38-.3.51l.37.44-.33.28-.38-.46c-.2.11-.44.16-.71.16-.29,0-.55-.06-.77-.19-.22-.13-.39-.31-.51-.55-.12-.24-.18-.53-.18-.88s.06-.64.18-.88ZM87.45,127.68c.03-.13.05-.27.05-.42,0-.35-.07-.62-.22-.82s-.36-.3-.64-.3-.5.1-.65.3c-.14.2-.22.48-.22.82s.07.62.22.82c.15.2.36.3.65.3.14,0,.27-.03.38-.08l-.37-.45.32-.27.35.43c.06-.1.1-.21.13-.34Z"/>
      <path class="cls-1" d="M89.17,127.57c0,.27.05.47.15.61.1.14.27.2.49.2s.4-.07.5-.2c.1-.13.15-.34.15-.61v-1.85h.57v1.84c0,.45-.11.79-.32,1-.21.21-.52.32-.91.32s-.7-.11-.91-.32c-.21-.21-.32-.55-.32-1.01v-1.82h.58v1.85Z"/>
      <path class="cls-1" d="M91.64,125.72h.58v3.08h-.58v-3.08Z"/>
      <path class="cls-1" d="M92.85,125.72h1.08c.3,0,.53.04.7.12.17.08.29.2.36.34s.11.31.11.5-.04.37-.11.52-.2.27-.37.36-.4.13-.7.13h-.52v1.11h-.56v-3.08ZM93.93,127.22c.17,0,.3-.02.39-.06.09-.04.16-.1.19-.18.03-.08.05-.17.05-.28,0-.17-.04-.3-.13-.38s-.26-.13-.51-.13h-.52v1.04h.52Z"/>
      <path class="cls-1" d="M96.12,125.72h.66l1.13,3.08h-.6l-.27-.75h-1.22l-.26.75h-.58l1.14-3.08ZM96.89,127.58l-.46-1.32-.46,1.32h.92Z"/>
      <path class="cls-1" d="M98.28,125.72h.68l.86,2.4.88-2.4h.67v3.08h-.53v-2.21l-.81,2.21h-.44l-.8-2.19v2.19h-.52v-3.08Z"/>
      <path class="cls-1" d="M102,125.72h2.08v.47h-1.51v.79h1.43v.48h-1.43v.86h1.6l-.07.47h-2.1v-3.08Z"/>
      <path class="cls-1" d="M104.62,125.72h.53l1.39,2.18v-2.18h.54v3.08h-.52l-1.4-2.16v2.16h-.55v-3.08Z"/>
      <path class="cls-1" d="M108.46,126.23h-.97v-.51h2.52v.51h-.98v2.57h-.57v-2.57Z"/>
      <path class="cls-1" d="M110.35,126.39c.12-.24.29-.43.51-.55s.47-.19.77-.19.55.06.77.19c.22.12.39.31.51.55.12.24.18.53.18.87s-.06.64-.18.88c-.12.24-.29.43-.51.56-.22.13-.48.19-.78.19s-.55-.06-.77-.19c-.22-.13-.39-.31-.51-.55-.12-.24-.18-.53-.18-.88s.06-.64.18-.88ZM111.62,126.14c-.29,0-.5.1-.65.3-.14.2-.22.47-.22.82s.07.62.22.82c.14.2.36.3.65.3s.5-.1.64-.3c.14-.2.22-.47.22-.82s-.07-.62-.22-.82-.36-.3-.64-.3Z"/>
      <path class="cls-1" d="M115.64,128.61c-.2.18-.5.26-.9.26s-.69-.08-.91-.24c-.23-.16-.36-.41-.38-.75h.57c.03.18.1.32.22.4.12.09.29.13.52.13s.38-.04.47-.13c.09-.09.13-.2.13-.33,0-.1-.03-.19-.09-.27-.06-.08-.19-.13-.38-.17l-.4-.07c-.32-.06-.56-.15-.73-.29s-.25-.34-.25-.62c0-.2.05-.36.15-.5.1-.13.24-.23.42-.3.18-.07.38-.1.62-.1.27,0,.48.04.65.11s.29.18.38.3c.08.13.14.27.17.43l-.55.08c-.04-.16-.11-.27-.2-.35-.09-.08-.24-.12-.45-.12-.23,0-.39.04-.48.12-.09.08-.14.17-.14.29s.03.21.1.28c.07.06.19.11.38.14l.43.08c.33.06.58.17.73.31.15.14.23.35.23.62s-.1.5-.3.67Z"/>
      <path class="cls-1" d="M117.39,125.72h1.13c.47,0,.84.13,1.1.38.26.25.39.63.39,1.14s-.14.9-.41,1.16c-.28.26-.66.4-1.15.4h-1.06v-3.08ZM118.48,128.31c.32,0,.56-.09.71-.28.15-.18.23-.44.23-.78s-.07-.59-.21-.77-.37-.27-.67-.27h-.58v2.1h.52Z"/>
      <path class="cls-1" d="M120.54,125.72h2.08v.47h-1.51v.79h1.43v.48h-1.43v.86h1.6l-.07.47h-2.1v-3.08Z"/>
      <path class="cls-1" d="M124.1,125.72h1.08c.3,0,.53.04.7.12.17.08.29.2.36.34s.11.31.11.5-.04.37-.11.52-.2.27-.37.36-.4.13-.7.13h-.52v1.11h-.56v-3.08ZM125.19,127.22c.17,0,.3-.02.39-.06.09-.04.16-.1.19-.18.03-.08.05-.17.05-.28,0-.17-.04-.3-.13-.38s-.26-.13-.51-.13h-.52v1.04h.52Z"/>
      <path class="cls-1" d="M126.85,125.72h1.1c.3,0,.53.04.7.13.17.08.29.19.36.33.07.14.11.29.11.46,0,.2-.04.36-.12.51-.08.14-.21.26-.39.34l.65,1.32h-.61l-.56-1.19s-.06,0-.09,0c-.03,0-.06,0-.08,0h-.52v1.19h-.56v-3.08ZM127.96,127.16c.24,0,.4-.04.48-.13s.13-.21.13-.37-.05-.27-.13-.35c-.09-.08-.26-.12-.51-.12h-.52v.98h.55Z"/>
      <path class="cls-1" d="M129.71,126.39c.12-.24.29-.43.51-.55s.47-.19.77-.19.55.06.77.19c.22.12.39.31.51.55.12.24.18.53.18.87s-.06.64-.18.88c-.12.24-.29.43-.51.56-.22.13-.48.19-.78.19s-.55-.06-.77-.19c-.22-.13-.39-.31-.51-.55-.12-.24-.18-.53-.18-.88s.06-.64.18-.88ZM130.99,126.14c-.29,0-.5.1-.65.3-.14.2-.22.47-.22.82s.07.62.22.82c.14.2.36.3.65.3s.5-.1.64-.3c.14-.2.22-.47.22-.82s-.07-.62-.22-.82-.36-.3-.64-.3Z"/>
      <path class="cls-1" d="M133.57,126.23h-.97v-.51h2.52v.51h-.98v2.57h-.57v-2.57Z"/>
      <path class="cls-1" d="M135.52,125.72h2.08v.47h-1.51v.79h1.43v.48h-1.43v.86h1.6l-.07.47h-2.1v-3.08Z"/>
      <path class="cls-1" d="M138.22,126.39c.12-.24.29-.43.5-.55.21-.13.46-.19.74-.19.26,0,.47.04.64.13.17.08.3.2.4.36.1.16.17.34.21.55l-.56.08c-.05-.2-.12-.35-.22-.46-.1-.11-.26-.16-.47-.16-.26,0-.46.1-.6.3-.14.2-.21.47-.21.82s.07.62.21.82c.14.2.34.3.61.3.23,0,.4-.06.51-.18.11-.12.17-.28.2-.47h.59c-.02.22-.08.42-.19.59s-.25.31-.44.4-.41.14-.68.14c-.29,0-.55-.06-.76-.19-.21-.13-.37-.31-.49-.55-.11-.24-.17-.53-.17-.87s.06-.64.18-.88ZM139.31,128.77l.3.02-.09.23c.16.02.27.06.33.13.06.07.09.15.09.24,0,.14-.05.23-.16.29-.11.06-.26.09-.44.09-.09,0-.19,0-.31-.03v-.28c.06,0,.11,0,.15.01s.08,0,.13,0c.08,0,.14-.01.17-.03.03-.02.05-.06.05-.1,0-.05-.02-.08-.06-.1-.04-.02-.11-.03-.22-.03h-.11l.17-.44Z"/>
      <path class="cls-1" d="M142.04,125.72h.66l1.13,3.08h-.6l-.27-.75h-1.22l-.26.75h-.58l1.14-3.08ZM142.02,124.84c.07,0,.14.01.2.04.06.02.13.07.21.14.06.05.1.08.13.1s.06.03.09.03c.09,0,.13-.09.13-.28h.35c0,.42-.14.63-.44.63-.08,0-.14-.01-.2-.04-.06-.03-.13-.07-.21-.13-.06-.05-.1-.08-.13-.1-.03-.02-.06-.03-.09-.03-.09,0-.13.1-.13.29h-.35c0-.42.14-.63.44-.63ZM142.81,127.58l-.46-1.32-.46,1.32h.92Z"/>
      <path class="cls-1" d="M144.08,126.39c.12-.24.29-.43.51-.55s.47-.19.77-.19.55.06.77.19c.22.12.39.31.51.55.12.24.18.53.18.87s-.06.64-.18.88c-.12.24-.29.43-.51.56-.22.13-.48.19-.78.19s-.55-.06-.77-.19c-.22-.13-.39-.31-.51-.55-.12-.24-.18-.53-.18-.88s.06-.64.18-.88ZM145.35,126.14c-.29,0-.5.1-.65.3-.14.2-.22.47-.22.82s.07.62.22.82c.14.2.36.3.65.3s.5-.1.64-.3c.14-.2.22-.47.22-.82s-.07-.62-.22-.82-.36-.3-.64-.3Z"/>
      <path class="cls-1" d="M148.29,125.72h.58v3.08h-.58v-3.08Z"/>
      <path class="cls-1" d="M149.49,125.72h.53l1.39,2.18v-2.18h.54v3.08h-.52l-1.4-2.16v2.16h-.55v-3.08Z"/>
      <path class="cls-1" d="M152.59,125.72h1.13c.47,0,.84.13,1.1.38.26.25.39.63.39,1.14s-.14.9-.41,1.16c-.28.26-.66.4-1.15.4h-1.06v-3.08ZM153.68,128.31c.32,0,.56-.09.71-.28.15-.18.23-.44.23-.78s-.07-.59-.21-.77-.37-.27-.67-.27h-.58v2.1h.52Z"/>
      <path class="cls-1" d="M155.74,125.72h.58v3.08h-.58v-3.08Z"/>
      <path class="cls-1" d="M156.7,125.72h.63l.81,2.45.81-2.45h.61l-1.11,3.08h-.66l-1.1-3.08Z"/>
      <path class="cls-1" d="M159.94,125.72h.58v3.08h-.58v-3.08Z"/>
      <path class="cls-1" d="M161.15,125.72h1.13c.47,0,.84.13,1.1.38.26.25.39.63.39,1.14s-.14.9-.41,1.16c-.28.26-.66.4-1.15.4h-1.06v-3.08ZM162.24,128.31c.32,0,.56-.09.71-.28.15-.18.23-.44.23-.78s-.07-.59-.21-.77-.37-.27-.67-.27h-.58v2.1h.52Z"/>
      <path class="cls-1" d="M164.84,127.57c0,.27.05.47.15.61.1.14.27.2.49.2s.4-.07.5-.2c.1-.13.15-.34.15-.61v-1.85h.57v1.84c0,.45-.11.79-.32,1-.21.21-.52.32-.91.32s-.7-.11-.91-.32c-.21-.21-.32-.55-.32-1.01v-1.82h.58v1.85Z"/>
      <path class="cls-1" d="M168.05,125.72h.66l1.13,3.08h-.6l-.27-.75h-1.22l-.26.75h-.58l1.14-3.08ZM168.83,127.58l-.46-1.32-.46,1.32h.92Z"/>
      <path class="cls-1" d="M170.22,125.72h.58v2.58h1.5l-.07.5h-2.01v-3.08Z"/>
    </g>
    <line class="cls-3" x1="19.06" y1="116.66" x2="172.3" y2="116.66"/>
  </g>
</svg>