<?xml version="1.0" encoding="UTF-8"?>
<svg id="Layer_1" data-name="Layer 1" xmlns="http://www.w3.org/2000/svg" viewBox="0 0 14.17 14.17">
  <defs>
    <style>
      .cls-1 {
        fill: #fff;
      }

      .cls-2 {
        fill: #ec008c;
      }
    </style>
  </defs>
  <rect class="cls-2" width="14.17" height="14.17" rx="1.42" ry="1.42"/>
  <path class="cls-1" d="M12.01,9.25c-.04.79-.22,1.5-.8,2.08-.58.58-1.28.76-2.08.8-.82.05-3.27.05-4.09,0-.79-.04-1.5-.22-2.08-.8-.58-.58-.76-1.28-.8-2.08-.05-.82-.05-3.27,0-4.09.04-.79.22-1.5.8-2.08.58-.58,1.29-.76,2.08-.8.82-.05,3.27-.05,4.09,0,.79.04,1.5.22,2.08.8.58.58.76,1.28.8,2.08.05.82.05,3.27,0,4.09ZM11.15,7.21c0-.72.06-2.27-.2-2.92-.17-.44-.51-.77-.94-.94-.65-.26-2.2-.2-2.92-.2s-2.27-.06-2.92.2c-.44.17-.77.51-.94.94-.26.65-.2,2.2-.2,2.92s-.06,2.27.2,2.92c.17.44.51.77.94.94.65.26,2.2.2,2.92.2s2.27.06,2.92-.2c.44-.17.77-.51.94-.94.26-.65.2-2.2.2-2.92ZM9.63,7.21c0,1.41-1.14,2.54-2.54,2.54s-2.54-1.14-2.54-2.54,1.14-2.54,2.54-2.54,2.54,1.14,2.54,2.54ZM8.74,7.21c0-.91-.74-1.65-1.65-1.65s-1.65.74-1.65,1.65.74,1.65,1.65,1.65,1.65-.74,1.65-1.65ZM9.74,5.15c-.33,0-.59-.27-.59-.59s.27-.59.59-.59.59.27.59.59-.27.59-.59.59Z"/>
</svg>