<?xml version="1.0" encoding="UTF-8"?>
<svg id="Layer_1" data-name="Layer 1" xmlns="http://www.w3.org/2000/svg" viewBox="0 0 14.17 14.17">
  <defs>
    <style>
      .cls-1 {
        fill: #fff;
      }

      .cls-2 {
        fill: #0073b1;
      }
    </style>
  </defs>
  <rect class="cls-2" x="0" width="14.17" height="14.17" rx="1.42" ry="1.42"/>
  <path class="cls-1" d="M5.24,3.9c0-.47-.38-.85-.85-.85s-.85.38-.85.85.38.85.85.85.85-.38.85-.85ZM5.13,10.13v-4.74h-1.47v4.74h1.47ZM10.64,7.53c0-1.28-.28-2.26-1.77-2.26-.71,0-1.2.39-1.39.76h-.02v-.65h-1.41v4.74h1.47v-2.34c0-.62.12-1.22.88-1.22s.76.71.76,1.26v2.3h1.47v-2.6Z"/>
</svg>