<?xml version="1.0" encoding="UTF-8"?>
<svg id="Layer_1" data-name="Layer 1" xmlns="http://www.w3.org/2000/svg" viewBox="0 0 14.17 14.17">
  <defs>
    <style>
      .cls-1 {
        fill: #231f20;
      }
    </style>
  </defs>
  <path class="cls-1" d="M10.74,5.87c0,1.35-.46,1.78-2.88,5.66-.36.57-1.19.57-1.55,0-2.42-3.89-2.88-4.31-2.88-5.66,0-2.02,1.64-3.66,3.66-3.66s3.66,1.64,3.66,3.66ZM9.83,5.87c0-1.51-1.23-2.74-2.74-2.74s-2.74,1.23-2.74,2.74c0,1.04.32,1.29,2.74,5.18,2.45-3.93,2.74-4.14,2.74-5.18ZM7.09,4.34c.84,0,1.52.68,1.52,1.52s-.68,1.52-1.52,1.52-1.52-.68-1.52-1.52.68-1.52,1.52-1.52Z"/>
</svg>