<?xml version="1.0" encoding="UTF-8"?>
<svg id="Layer_1" data-name="Layer 1" xmlns="http://www.w3.org/2000/svg" viewBox="0 0 14.17 14.17">
  <defs>
    <style>
      .cls-1 {
        fill: #52ba63;
      }

      .cls-2 {
        fill: #fff;
      }
    </style>
  </defs>
  <circle class="cls-1" cx="7.09" cy="7.09" r="7.09"/>
  <path class="cls-2" d="M12.05,7.17c0,2.71-2.25,4.92-4.96,4.92h0c-.82,0-1.63-.21-2.35-.6l-2.61.68.7-2.55c-.43-.75-.66-1.59-.66-2.46,0-2.71,2.21-4.92,4.92-4.92,1.31,0,2.55.51,3.48,1.44.93.93,1.49,2.16,1.49,3.48ZM11.22,7.17c0-1.09-.47-2.12-1.24-2.89-.77-.77-1.8-1.2-2.89-1.2-2.25,0-4.09,1.83-4.09,4.09,0,.77.21,1.52.62,2.17l.1.16-.41,1.51,1.55-.41.15.09c.63.37,1.35.57,2.08.57,2.25,0,4.13-1.83,4.13-4.09ZM9.56,8.34c.03.05.03.3-.07.59-.1.29-.59.55-.83.58-.39.06-.69.03-1.47-.31-1.23-.53-2.04-1.77-2.1-1.86-.06-.08-.5-.67-.5-1.27s.32-.9.43-1.03c.11-.12.25-.15.33-.15s.16,0,.24,0c.07,0,.18-.03.28.21.1.24.35.85.38.91s.05.13.01.21c-.23.47-.49.45-.36.67.48.82.95,1.1,1.67,1.46.12.06.2.05.27-.03.07-.08.31-.36.39-.48.08-.12.16-.11.28-.06.11.04.72.34.84.4.12.06.2.09.23.15Z"/>
</svg>