<?xml version="1.0" encoding="UTF-8"?>
<svg id="Layer_1" data-name="Layer 1" xmlns="http://www.w3.org/2000/svg" viewBox="0 0 14.17 14.17">
  <defs>
    <style>
      .cls-1 {
        fill: #ed2024;
      }

      .cls-2 {
        fill: #fff;
      }
    </style>
  </defs>
  <circle class="cls-1" cx="7.09" cy="7.09" r="7.09"/>
  <g>
    <path class="cls-2" d="M12.05,7.22s0,1.62-.21,2.4c-.11.43-.45.75-.88.87-.77.21-3.88.21-3.88.21,0,0-3.1,0-3.88-.21-.43-.11-.76-.44-.88-.87-.21-.78-.21-2.4-.21-2.4,0,0,0-1.62.21-2.4.11-.43.45-.77.88-.88.77-.21,3.88-.21,3.88-.21,0,0,3.1,0,3.88.21.43.11.76.45.88.88.21.78.21,2.4.21,2.4ZM8.67,7.22l-2.59-1.47v2.95l2.59-1.47Z"/>
    <polygon class="cls-1" points="8.67 7.22 6.07 5.74 6.07 8.69 8.67 7.22"/>
  </g>
</svg>